<svg xmlns="http://www.w3.org/2000/svg" viewBox="0 0 750 500"><g id="freepik--background-simple--inject-691"><path d="M286.18,112.49c97.48-48,197.73-110.75,311-85.07,35.11,8,67.06,27.87,88.66,56.81,57.75,77.39,53.06,195.92,21.68,283a158.37,158.37,0,0,1-15.79,32.55c-31.85,49.15-85.51,51.47-137.28,37.26-43.8-12-82.61-24.4-127.86-12.17-25.06,6.77-49.35,16.08-74.32,23.17-34,9.64-69.05,16.19-104.45,16.86-93.67,1.75-200.67-46-209-150.63a167.16,167.16,0,0,1-.33-20.39c1.88-41.76,15.68-83.58,53.93-105.26,38.46-21.8,84.09-30.41,125.23-45.87C241,134,263.74,123.54,286.18,112.49Z" style="fill:#92E3A9"></path><path d="M286.18,112.49c97.48-48,197.73-110.75,311-85.07,35.11,8,67.06,27.87,88.66,56.81,57.75,77.39,53.06,195.92,21.68,283a158.37,158.37,0,0,1-15.79,32.55c-31.85,49.15-85.51,51.47-137.28,37.26-43.8-12-82.61-24.4-127.86-12.17-25.06,6.77-49.35,16.08-74.32,23.17-34,9.64-69.05,16.19-104.45,16.86-93.67,1.75-200.67-46-209-150.63a167.16,167.16,0,0,1-.33-20.39c1.88-41.76,15.68-83.58,53.93-105.26,38.46-21.8,84.09-30.41,125.23-45.87C241,134,263.74,123.54,286.18,112.49Z" style="fill:#fff;opacity:0.7000000000000001"></path></g><g id="freepik--Floor--inject-691"><path d="M96.53,457.46h-51a.51.51,0,0,1-.5-.5.5.5,0,0,1,.5-.5h51a.5.5,0,0,1,.5.5A.5.5,0,0,1,96.53,457.46Z" style="fill:#263238"></path><path d="M722,457.46H105.62a.5.5,0,0,1-.5-.5.5.5,0,0,1,.5-.5H722a.5.5,0,0,1,.5.5A.5.5,0,0,1,722,457.46Z" style="fill:#263238"></path></g><g id="freepik--Gears--inject-691"><path d="M660.86,234.46h-8.69l-1.09-7.6a27.41,27.41,0,0,1-10-4.18L635,227.27l-6.15-6.15,4.6-6.14a27.55,27.55,0,0,1-4.11-10l-7.58-1.09v-8.69l7.61-1.09a27.23,27.23,0,0,1,4.18-10L628.92,178l6.14-6.15,6.15,4.61a27.26,27.26,0,0,1,10-4.12l1.08-7.57H661l1.08,7.6a27.35,27.35,0,0,1,10,4.18l6.12-4.59,6.14,6.15-4.6,6.14a27.6,27.6,0,0,1,4.12,10l7.57,1.08V204l-7.6,1.08a27.7,27.7,0,0,1-4.18,10l4.59,6.12-6.15,6.15L672,222.77a27.43,27.43,0,0,1-10,4.12Zm-7.83-1h7l1.07-7.43.35-.06a26.48,26.48,0,0,0,10.3-4.23l.29-.2,6,4.52,4.93-4.93-4.5-6,.2-.29a26.46,26.46,0,0,0,4.29-10.27l.07-.35,7.45-1.07v-7L683,195.13l-.06-.36a26.52,26.52,0,0,0-4.23-10.29l-.2-.3,4.51-6-4.92-4.92-6,4.5-.29-.21a26.67,26.67,0,0,0-10.27-4.29l-.36-.06-1.06-7.45h-7l-1.06,7.42-.36.06a26.63,26.63,0,0,0-10.3,4.23l-.29.2-6-4.51-4.92,4.92,4.5,6-.21.3a26.54,26.54,0,0,0-4.29,10.27l-.07.35L622.72,196v7l7.43,1.06.06.35a26.63,26.63,0,0,0,4.23,10.3l.2.29-4.51,6,4.92,4.93,6-4.5.3.2a26.39,26.39,0,0,0,10.27,4.29l.35.07Zm3.56-14.39a19.48,19.48,0,1,1,19.48-19.48A19.5,19.5,0,0,1,656.59,219.07Zm0-38a18.48,18.48,0,1,0,18.48,18.48A18.5,18.5,0,0,0,656.59,181.11Z" style="fill:#263238"></path><path d="M691.26,272.51h-6.47l-.78-5.46a19.56,19.56,0,0,1-7-2.93l-4.4,3.3L668,262.84l3.31-4.41a19.69,19.69,0,0,1-2.89-7l-5.44-.77v-6.47l5.46-.78a19.93,19.93,0,0,1,2.93-7L668.1,232l4.57-4.57,4.41,3.31a19.65,19.65,0,0,1,7-2.89l.78-5.44h6.47l.78,5.46a19.74,19.74,0,0,1,7,2.93l4.39-3.29,4.58,4.57-3.31,4.41a20,20,0,0,1,2.89,7l5.44.78v6.47l-5.46.78a19.76,19.76,0,0,1-2.94,7l3.3,4.39-4.57,4.57-4.41-3.3a20,20,0,0,1-7.05,2.89Zm-5.6-1h4.73l.76-5.28.35-.07a18.86,18.86,0,0,0,7.31-3l.29-.2,4.29,3.21,3.35-3.34-3.21-4.28.21-.29a18.9,18.9,0,0,0,3-7.29l.07-.35,5.31-.76v-4.73l-5.29-.76-.07-.35a18.86,18.86,0,0,0-3-7.31l-.2-.3,3.22-4.29-3.35-3.34L699.2,232l-.3-.2a18.92,18.92,0,0,0-7.29-3.05l-.35-.06-.76-5.31h-4.73l-.76,5.29-.35.06a18.86,18.86,0,0,0-7.31,3l-.3.21-4.28-3.22-3.35,3.35,3.21,4.27-.21.3a18.63,18.63,0,0,0-3,7.29l-.07.35L664,245v4.73l5.29.75.07.36a18.7,18.7,0,0,0,3,7.31l.2.29-3.22,4.29,3.35,3.35,4.27-3.21.3.21a18.84,18.84,0,0,0,7.29,3l.35.07Zm2.42-10a14.07,14.07,0,1,1,14.07-14.07A14.08,14.08,0,0,1,688.08,261.51Zm0-27.14a13.07,13.07,0,1,0,13.07,13.07A13.08,13.08,0,0,0,688.08,234.37Z" style="fill:#263238"></path><path d="M58.94,222.42H50.25l-1.09-7.6a27.58,27.58,0,0,1-10-4.18L33,215.22l-6.15-6.14,4.6-6.15a27.41,27.41,0,0,1-4.11-10l-7.58-1.08v-8.7L27.4,182a27.54,27.54,0,0,1,4.19-10L27,165.91l6.15-6.14,6.14,4.6a27.6,27.6,0,0,1,10-4.12l1.08-7.57h8.7l1.08,7.6a27.7,27.7,0,0,1,10,4.18l6.12-4.59L82.45,166l-4.6,6.15a27.6,27.6,0,0,1,4.12,10l7.57,1.08V192l-7.6,1.09a27.41,27.41,0,0,1-4.18,10l4.59,6.12-6.15,6.15-6.15-4.6a27.44,27.44,0,0,1-10,4.11Zm-7.83-1h7L59.14,214l.35-.06a26.63,26.63,0,0,0,10.3-4.23l.29-.2,6,4.51L81,209.09l-4.5-6,.2-.3A26.39,26.39,0,0,0,81,192.52l.07-.35,7.45-1.06v-7l-7.43-1.07-.06-.35a26.63,26.63,0,0,0-4.23-10.3l-.2-.29,4.51-6-4.92-4.93-6,4.5-.29-.2a26.52,26.52,0,0,0-10.27-4.29l-.36-.07-1.06-7.45h-7l-1.06,7.43-.36.06a26.52,26.52,0,0,0-10.29,4.23l-.3.2-6-4.51L28.32,166l4.5,6-.21.3a26.56,26.56,0,0,0-4.29,10.26l-.07.36L20.8,184v7L28.23,192l.06.36a26.52,26.52,0,0,0,4.23,10.29l.2.3-4.51,6,4.92,4.92,6-4.5.3.21A26.39,26.39,0,0,0,49.7,213.9l.35.07ZM54.67,207a19.47,19.47,0,1,1,13.77-5.7A19.4,19.4,0,0,1,54.67,207Zm0-37.94a18.47,18.47,0,1,0,13.07,5.4A18.41,18.41,0,0,0,54.67,169.08Z" style="fill:#263238"></path><path d="M69.42,156.53H63l-.78-5.46a19.93,19.93,0,0,1-7-2.93l-4.4,3.29-4.57-4.57,3.31-4.41a19.65,19.65,0,0,1-2.89-7l-5.44-.78v-6.47l5.46-.78a19.74,19.74,0,0,1,2.93-7L46.26,116l4.57-4.57,4.41,3.3a20,20,0,0,1,7-2.89l.78-5.43h6.47l.78,5.45a19.84,19.84,0,0,1,7,2.94l4.39-3.3L86.29,116,83,120.46a19.87,19.87,0,0,1,2.89,7l5.43.77v6.47l-5.45.78a19.76,19.76,0,0,1-2.94,7l3.3,4.4-4.58,4.57-4.41-3.31a19.58,19.58,0,0,1-7,2.89Zm-5.6-1h4.73l.75-5.29.36-.06a18.72,18.72,0,0,0,7.31-3l.29-.2,4.29,3.22,3.35-3.35-3.21-4.27.21-.3a18.84,18.84,0,0,0,3-7.29l.07-.35,5.3-.76v-4.73L85,128.38,85,128a18.86,18.86,0,0,0-3-7.31l-.2-.29L85,116.14l-3.34-3.35L77.35,116l-.29-.21a18.9,18.9,0,0,0-7.29-3l-.35-.07-.76-5.3H63.93l-.76,5.28-.35.07a18.86,18.86,0,0,0-7.31,3l-.3.2-4.29-3.21-3.34,3.34,3.2,4.28-.2.29a18.92,18.92,0,0,0-3,7.29l-.06.35-5.31.76v4.73l5.29.76.06.35a18.86,18.86,0,0,0,3,7.31l.21.3-3.22,4.29,3.35,3.34,4.27-3.2.3.2a18.8,18.8,0,0,0,7.29,3l.35.06Zm2.42-10a14.07,14.07,0,1,1,10-4.12A14,14,0,0,1,66.24,145.52Zm0-27.14a13.08,13.08,0,1,0,9.24,3.83h0A13,13,0,0,0,66.24,118.38Z" style="fill:#263238"></path></g><g id="freepik--Plant--inject-691"><path d="M44.87,315.88s-2.34,6.43-7.31,7.3-13.73-8.76-8.18-13.73S42.53,312.37,44.87,315.88Z" style="fill:#92E3A9"></path><path d="M36.9,323.74c-3.25,0-7.24-3.39-8.89-6.78-1.5-3.08-1.12-5.95,1-7.88a6.41,6.41,0,0,1,5.26-1.67c4.42.56,9,5.21,11,8.19a.51.51,0,0,1,.06.45c-.1.27-2.5,6.71-7.69,7.63A4.74,4.74,0,0,1,36.9,323.74Zm-3.48-15.38a5.48,5.48,0,0,0-3.71,1.46c-2.46,2.21-1.56,5.14-.8,6.7,1.77,3.64,5.93,6.63,8.56,6.17,4.11-.72,6.36-5.62,6.83-6.75-1.89-2.74-6.16-7-10.11-7.54A6.74,6.74,0,0,0,33.42,308.36Z" style="fill:#263238"></path><path d="M52.46,284.32s-7.3,17.83-4.38,26.59,21,15.2,26.3,3.8-6.43-27.46-10.81-31S53.92,281.4,52.46,284.32Z" style="fill:#92E3A9"></path><path d="M64.26,321.33l-.93,0c-6.92-.38-14-5-15.72-10.23-3-8.84,4.09-26.2,4.39-26.94l0,0a5.71,5.71,0,0,1,4-2.84,9.42,9.42,0,0,1,7.86,2.09c4.49,3.59,16.33,19.92,10.95,31.57C72.91,319.08,69.18,321.33,64.26,321.33Zm-11.34-36.8c-.26.64-7.16,17.85-4.37,26.22,1.61,4.83,8.41,9.2,14.84,9.56,2.85.15,8-.39,10.53-5.81,5.15-11.15-6.32-26.89-10.67-30.37a8.4,8.4,0,0,0-7-1.89A4.73,4.73,0,0,0,52.92,284.53Z" style="fill:#263238"></path><path d="M95.12,291.92s-12.56,11.4-14,22.79,7,15.49,15.78,14,13.14-23.67,10.51-33.9S95.12,291.92,95.12,291.92Z" style="fill:#92E3A9"></path><path d="M93.5,329.52a13.71,13.71,0,0,1-9.67-3.44c-2.73-2.63-3.85-6.59-3.23-11.43,1.47-11.45,13.67-22.63,14.19-23.1l0,0c.2-.15,4.93-3.69,8.87-2.31,2,.7,3.43,2.56,4.19,5.51,1.9,7.4.2,22-4.85,29.77-1.8,2.77-3.85,4.37-6.07,4.74A20.89,20.89,0,0,1,93.5,329.52Zm1.94-37.21c-.53.48-12.45,11.58-13.85,22.46-.58,4.52.44,8.18,2.94,10.59,2.77,2.67,7.24,3.72,12.26,2.88,1.94-.32,3.76-1.77,5.41-4.29,4.91-7.55,6.56-21.78,4.71-29-.67-2.61-1.87-4.23-3.55-4.82C100,289,95.75,292.08,95.44,292.31Z" style="fill:#263238"></path><path d="M97.46,355s-14,.59-14.61,7.31,6.14,8.18,12.86,2.33S103.3,355.32,97.46,355Z" style="fill:#92E3A9"></path><path d="M87.71,368.83a5.76,5.76,0,0,1-2.67-.6c-2-1-2.93-3.11-2.69-5.94.62-7.07,14.5-7.73,15.09-7.76h0c2.4.12,3.83.79,4.24,2,.64,1.85-1.22,4.64-5.69,8.52C93.2,367.51,90.22,368.83,87.71,368.83Zm9.75-13.3c-.62,0-13.58.76-14.11,6.85-.21,2.39.55,4.15,2.14,5,2.45,1.24,6.33.05,9.89-3,5.33-4.64,5.67-6.66,5.4-7.45C100.44,355.89,98.79,355.6,97.46,355.53Z" style="fill:#263238"></path><path d="M83.29,364.39l-.42-.91c.46-.2,11.17-5.09,16.16-6l.17,1C94.34,359.35,83.4,364.34,83.29,364.39Z" style="fill:#263238"></path><path d="M100.59,399s-10.31-9.53-15.48-5.21-1.48,10.12,7.4,10.77S104.5,403.35,100.59,399Z" style="fill:#92E3A9"></path><path d="M95.69,405.19c-1,0-2-.05-3.21-.13-5.2-.38-9-2.51-10-5.56-.68-2.11.14-4.28,2.32-6.09,5.45-4.55,15.7,4.83,16.14,5.23l0,0c1.6,1.79,2.13,3.27,1.57,4.41C101.84,404.49,99.59,405.19,95.69,405.19Zm-7.27-12a4.51,4.51,0,0,0-3,1c-1.84,1.53-2.56,3.32-2,5,.84,2.62,4.42,4.53,9.13,4.87,7,.51,8.72-.67,9.08-1.42.45-.91-.51-2.29-1.4-3.28C99.86,399,93.35,393.16,88.42,393.16Z" style="fill:#263238"></path><path d="M99.36,402.68c-4-2.84-15.29-7.08-15.4-7.13l.35-.93c.47.17,11.49,4.33,15.62,7.24Z" style="fill:#263238"></path><path d="M46.24,396.2S60.45,383.05,67.58,389s2,13.95-10.2,14.84S40.85,402.19,46.24,396.2Z" style="fill:#92E3A9"></path><path d="M53,404.53c-5.27,0-8.3-.92-9.22-2.8-.73-1.5,0-3.47,2.14-5.87l0,0c.6-.55,14.61-13.37,22-7.2,2.94,2.45,4,5.36,3.14,8.19-1.33,4.13-6.55,7-13.63,7.53C55.78,404.47,54.29,404.53,53,404.53Zm-6.35-8c-1.27,1.42-2.64,3.38-2,4.74.53,1.08,2.88,2.78,12.71,2.06,6.56-.47,11.56-3.16,12.75-6.83.78-2.42-.23-4.95-2.83-7.12C60.65,383.87,47.15,396.05,46.6,396.55Z" style="fill:#263238"></path><path d="M47.83,401.11l-.58-.82c5.69-4,20.85-9.72,21.5-10l.35.93C68.94,391.32,53.41,397.18,47.83,401.11Z" style="fill:#263238"></path><path d="M62.69,369.06s-1.46,7-6.72,9.64-14.61-2.92-9.64-11.4S60.06,365.55,62.69,369.06Z" style="fill:#92E3A9"></path><path d="M53,379.85a9.25,9.25,0,0,1-6.6-2.84c-2.49-2.66-2.69-6.3-.54-10,1.6-2.73,3.72-4.19,6.29-4.34,4.44-.24,9.05,3.58,10.9,6.05a.48.48,0,0,1,.09.4c-.06.3-1.57,7.28-7,10A7.09,7.09,0,0,1,53,379.85Zm-.43-16.15h-.36c-2.22.13-4.07,1.42-5.49,3.85-1.91,3.25-1.76,6.45.41,8.77s6,3.22,8.58,1.92c4.46-2.23,6.1-7.89,6.4-9.08C60.28,366.79,56.26,363.7,52.61,363.7Z" style="fill:#263238"></path><path d="M50.42,347.14s-2.63-5.84-12.86-2-14.32,9.64-7.89,11.68S50.42,347.14,50.42,347.14Z" style="fill:#92E3A9"></path><path d="M31.35,357.52a6,6,0,0,1-1.83-.26c-2.79-.89-3.41-2.36-3.43-3.44-.07-3,4.36-6.61,11.3-9.19,10.54-3.92,13.46,2.24,13.48,2.31a.48.48,0,0,1-.14.59C50.19,348,38.41,357.52,31.35,357.52Zm12.47-13.21a17.56,17.56,0,0,0-6.08,1.26c-7.39,2.74-10.7,6.19-10.65,8.23,0,1.36,1.5,2.12,2.73,2.51,5.58,1.77,17.79-7.59,20-9.29C49.26,346.22,47.62,344.31,43.82,344.31Z" style="fill:#263238"></path><path d="M32.09,353.41l-.64-.77c5.9-5,16.51-6.21,17-6.26l.1,1C48.41,347.39,37.76,348.59,32.09,353.41Z" style="fill:#263238"></path><path d="M79.64,277s1.75,4.09,5.26,3.21,4.38-6.13,9.93-4.67,10.23,7.89,10.23,5S98,270,90.15,270,79.93,273.22,79.64,277Z" style="fill:#92E3A9"></path><path d="M104.62,281.78c-.68,0-1.56-.68-3-1.75-1.81-1.39-4.3-3.29-7-4-3.15-.83-4.63.67-6.18,2.25a7.77,7.77,0,0,1-3.5,2.43c-3.1.77-5.18-2-5.84-3.5a.51.51,0,0,1,0-.24c.38-5,4.09-7.47,11-7.47,8,0,15.41,7.57,15.41,11a1.23,1.23,0,0,1-.54,1.16A.93.93,0,0,1,104.62,281.78ZM93,274.8a8.12,8.12,0,0,1,1.95.27c2.84.75,5.42,2.72,7.3,4.17a12,12,0,0,0,2.28,1.53,1.25,1.25,0,0,0,0-.24c0-2.46-6.48-10-14.41-10-6.34,0-9.61,2.1-10,6.42.29.62,1.83,3.52,4.62,2.82a6.91,6.91,0,0,0,3-2.16C89.1,276.27,90.54,274.8,93,274.8Z" style="fill:#263238"></path><path d="M69.07,363.09a41.11,41.11,0,0,0-1.3-4.22c-5-13.39-16.76-11.33-17.26-11.24l-.19-1c.13,0,13.06-2.33,18.39,11.87A40.12,40.12,0,0,1,70,362.85Z" style="fill:#263238"></path><path d="M102.92,333.61s2.63-5.85,12.86-2.05,14.32,9.65,7.89,11.69S102.92,333.61,102.92,333.61Z" style="fill:#92E3A9"></path><path d="M122,344c-7.06,0-18.85-9.55-19.39-10a.51.51,0,0,1-.14-.6c0-.06,2.94-6.22,13.49-2.31,6.93,2.58,11.37,6.19,11.29,9.2,0,1.08-.64,2.55-3.43,3.44A6.25,6.25,0,0,1,122,344Zm-18.43-10.51c2.16,1.71,14.38,11.07,20,9.29,1.23-.39,2.7-1.14,2.73-2.5,0-2-3.26-5.5-10.64-8.24C107.3,329,104.3,332.35,103.57,333.48Z" style="fill:#263238"></path><path d="M120.39,339.87c-4.76-5.87-15-5.38-15.1-5.38l-.06-1c.44,0,10.86-.53,15.94,5.74Z" style="fill:#263238"></path><path d="M94.42,335.25l-.41-.91a16.48,16.48,0,0,1,9-1.22l-.19,1A15.86,15.86,0,0,0,94.42,335.25Z" style="fill:#263238"></path><path d="M56.77,323.48c-6-6.09-11.92-7.1-12-7.11s-8.82-2.28-12.1.72l-.67-.74c3.67-3.37,12.6-1.06,13-1,.21,0,6.28,1,12.49,7.38Z" style="fill:#263238"></path><rect x="57.6" y="288.29" width="1" height="2.5" transform="matrix(0.98, -0.22, 0.22, 0.98, -61.88, 19.7)" style="fill:#263238"></rect><path d="M73.1,419.94l-1,0c0-.5,1.3-50.47,0-65.54s-7.34-32.89-7.4-33.07l-6.24-27.85,1-.22L65.67,321c0,.13,6.13,18.08,7.43,33.25S73.12,419.44,73.1,419.94Z" style="fill:#263238"></path><rect x="97.8" y="299.86" width="2.66" height="1" transform="translate(-214.94 262.92) rotate(-64.94)" style="fill:#263238"></rect><path d="M76.16,419.88h-1c0-.46.46-46.08,2.19-59.05S86,327.31,86.1,327.1l10.74-23,.91.42L87,327.48c0,.15-7,20.57-8.69,33.47S76.16,419.42,76.16,419.88Z" style="fill:#263238"></path><path d="M78.78,420l-1-.06c1.73-29.36,4.77-55.77,4.81-56l1,.12C83.55,364.26,80.5,390.64,78.78,420Z" style="fill:#263238"></path><path d="M68.74,419.89l-1,0c0-.42.85-41.95-.85-47.49-.59-1.9-1.37-3-2.27-3.31a1.92,1.92,0,0,0-1.61.37l-.11.09-.15,0c-.08,0-7.88,1-10.65,5.41l-.84-.53c2.84-4.55,10.11-5.7,11.23-5.85a2.84,2.84,0,0,1,2.4-.47c1.26.36,2.25,1.7,3,4C69.59,377.77,68.77,418.17,68.74,419.89Z" style="fill:#263238"></path><path d="M70.92,420l-1-.06c0-.4,2.08-41-.17-53.56l1-.17C73,378.86,70.94,419.54,70.92,420Z" style="fill:#263238"></path><path d="M80,419.94c0-2.48-.54-61.05,4.68-74.95a18.84,18.84,0,0,1,6.82-9.24l.56.83a17.9,17.9,0,0,0-6.45,8.76c-5.14,13.72-4.61,74-4.61,74.59Z" style="fill:#263238"></path><path d="M74.85,419.94l-1-.13c1.22-9-1.26-61.31-8.28-81.47a40.92,40.92,0,0,0-7.32-13.22l.77-.65A42,42,0,0,1,66.53,338C73.58,358.29,76.08,410.88,74.85,419.94Z" style="fill:#263238"></path><path d="M76.16,419.88h-1c0-.51.31-51.23.73-76.29l1,0C76.47,368.65,76.16,419.37,76.16,419.88Z" style="fill:#263238"></path><path d="M76.94,340.44l-1,0c.35-20.21.67-34.34,1-42,.75-19.68,1.84-21.52,2.35-21.83.49-1.1,2.84-5.13,11.1-4.59l-.06,1c-8.52-.55-10.12,4-10.19,4.16l-.24.75-.18-.17c-.37,1.08-1.19,5.17-1.78,20.72C77.61,306.11,77.29,320.23,76.94,340.44Z" style="fill:#263238"></path><path d="M65.26,359.57s-7.31-6.51-4.38-9.71,21-5.56,26.29-1.39-6.43,10-10.81,11.32S66.72,360.64,65.26,359.57Z" style="fill:#92E3A9"></path><path d="M70.53,361.08c-2.49,0-4.63-.42-5.57-1.1l0,0c-.21-.19-5.06-4.55-5.24-8.06a3.14,3.14,0,0,1,.82-2.37c3.16-3.48,21.48-5.8,27-1.44A3.31,3.31,0,0,1,89,351.42c-.77,3.93-9.1,7.87-12.45,8.85A21.68,21.68,0,0,1,70.53,361.08Zm-5-1.9c1.32.93,6.33,1.39,10.65.13,3.66-1.07,11.12-4.89,11.75-8.08a2.35,2.35,0,0,0-1.11-2.37c-5-3.93-22.83-1.71-25.61,1.33a2.18,2.18,0,0,0-.56,1.65C60.84,354.83,65.25,358.89,65.57,359.18Z" style="fill:#263238"></path><path d="M72.34,356.18h-1a13.75,13.75,0,0,1,.17-2l1,.16A12.87,12.87,0,0,0,72.34,356.18Z" style="fill:#263238"></path><path d="M73.12,351.62l-1-.29a32.64,32.64,0,0,1,1.91-4.92l.89.45A33.78,33.78,0,0,0,73.12,351.62Z" style="fill:#263238"></path><path d="M65.26,402.16s-7.31-6.51-4.38-9.71,21-5.56,26.29-1.39-6.43,10-10.81,11.32S66.72,403.23,65.26,402.16Z" style="fill:#92E3A9"></path><path d="M70.53,403.67c-2.49,0-4.63-.42-5.57-1.1l0,0c-.21-.19-5.06-4.55-5.24-8.06a3.13,3.13,0,0,1,.82-2.37c3.16-3.48,21.48-5.8,27-1.44A3.31,3.31,0,0,1,89,394c-.77,3.93-9.1,7.87-12.45,8.85A21.68,21.68,0,0,1,70.53,403.67Zm-5-1.9c1.32.93,6.33,1.39,10.65.13,3.66-1.07,11.12-4.89,11.75-8.08a2.35,2.35,0,0,0-1.11-2.37c-5-3.93-22.83-1.71-25.61,1.33a2.18,2.18,0,0,0-.56,1.65C60.84,397.42,65.25,401.48,65.57,401.77Z" style="fill:#263238"></path><path d="M72.34,398.77h-1c0-4.27,2.62-9.55,2.73-9.77l.89.45C74.94,389.5,72.34,394.74,72.34,398.77Z" style="fill:#263238"></path><path d="M70.7,384.15s-5-4.42-3-6.6,14.28-3.77,17.86-.94-4.37,6.82-7.34,7.69S71.69,384.88,70.7,384.15Z" style="fill:#92E3A9"></path><path d="M74.29,385.33a7.49,7.49,0,0,1-3.89-.78l0,0c-.14-.12-3.48-3.13-3.6-5.58a2.26,2.26,0,0,1,.59-1.72c2.18-2.39,14.76-4,18.54-1a2.41,2.41,0,0,1,1,2.43c-.57,2.89-6.56,5.54-8.56,6.13A15.25,15.25,0,0,1,74.29,385.33ZM71,383.76c.86.6,4.25.88,7.09.06,2.45-.72,7.45-3.26,7.86-5.37a1.47,1.47,0,0,0-.7-1.45c-3.33-2.63-15.31-1.15-17.17.89a1.26,1.26,0,0,0-.33,1C67.84,380.57,70.11,383,71,383.76Z" style="fill:#263238"></path><path d="M75.67,381.85h-1c0-2.94,1.79-6.55,1.86-6.71l.9.45A17.58,17.58,0,0,0,75.67,381.85Z" style="fill:#263238"></path><rect x="63.84" y="412.63" width="19.77" height="43.85" style="fill:#263238"></rect><path d="M83.61,457H63.84a.5.5,0,0,1-.5-.5V412.63a.5.5,0,0,1,.5-.5H83.61a.5.5,0,0,1,.5.5v43.85A.5.5,0,0,1,83.61,457Zm-19.27-1H83.11V413.13H64.34Z" style="fill:#263238"></path></g><g id="freepik--Codes--inject-691"><path d="M534.14,94.16l-22-15.52V70.42l22-15.68V63L518.39,74.49l15.75,11.45Z" style="fill:#263238"></path><path d="M540.83,96.93l16.75-62.24h7.15L547.9,96.93Z" style="fill:#263238"></path><path d="M571.41,94.16V85.94l15.83-11.53L571.41,63v-8.3l22.06,15.6v8.22Z" style="fill:#263238"></path><path d="M611.05,142.57l-10.48-7.4v-3.92l10.48-7.48v4l-7.52,5.46,7.52,5.46Z" style="fill:#263238"></path><path d="M620.94,144.18a6.28,6.28,0,0,1-3.94-1,5.17,5.17,0,0,1-1.8-2.95,19.43,19.43,0,0,1-.45-4.43v-4.88a19.31,19.31,0,0,1,.47-4.56,5,5,0,0,1,1.82-2.89,6.34,6.34,0,0,1,3.9-1,7,7,0,0,1,3.57.75,3.88,3.88,0,0,1,1.74,2.23,12.15,12.15,0,0,1,.48,3.69v1.24h-3.56v-1.28a10.58,10.58,0,0,0-.18-2.2,1.92,1.92,0,0,0-.66-1.17,2.66,2.66,0,0,0-2.82.07,2.42,2.42,0,0,0-.68,1.49,19.16,19.16,0,0,0-.16,2.84v6.66a8.51,8.51,0,0,0,.51,3.63,1.91,1.91,0,0,0,1.83.92,2,2,0,0,0,1.45-.46,2.32,2.32,0,0,0,.59-1.3,13.65,13.65,0,0,0,.12-1.91V135.9h3.56v1.47a12,12,0,0,1-.5,3.66,4.18,4.18,0,0,1-1.76,2.35A6.61,6.61,0,0,1,620.94,144.18Z" style="fill:#263238"></path><path d="M636,144.18a6.33,6.33,0,0,1-3.71-1,5.13,5.13,0,0,1-1.92-2.71,13.45,13.45,0,0,1-.57-4.14v-6.16a13.49,13.49,0,0,1,.57-4.14,5.16,5.16,0,0,1,1.92-2.71,6.41,6.41,0,0,1,3.71-1,6.28,6.28,0,0,1,3.68,1,5.19,5.19,0,0,1,1.9,2.71,13.49,13.49,0,0,1,.57,4.14v6.16a13.45,13.45,0,0,1-.57,4.14,5.15,5.15,0,0,1-1.9,2.71A6.21,6.21,0,0,1,636,144.18Zm0-2.89a1.81,1.81,0,0,0,1.59-.66,3.58,3.58,0,0,0,.55-1.74q.09-1.08.09-2.25V130c0-.8,0-1.56-.09-2.27a3.65,3.65,0,0,0-.55-1.74,1.79,1.79,0,0,0-1.59-.68,1.85,1.85,0,0,0-1.62.68,3.55,3.55,0,0,0-.56,1.74c-.07.71-.1,1.47-.1,2.27v6.64c0,.78,0,1.53.1,2.25a3.48,3.48,0,0,0,.56,1.74A1.87,1.87,0,0,0,636,141.29Z" style="fill:#263238"></path><path d="M650.69,144.18a4.48,4.48,0,0,1-4-2q-1.32-2-1.32-6.65v-4.1a23.44,23.44,0,0,1,.4-4.49,6.87,6.87,0,0,1,1.52-3.32,4.19,4.19,0,0,1,3.28-1.24,4.06,4.06,0,0,1,1.94.47,6.79,6.79,0,0,1,1.58,1.18v-9.86H658v29.68H654.1v-1.36a6.58,6.58,0,0,1-1.52,1.2A3.88,3.88,0,0,1,650.69,144.18Zm1-3.08a3.6,3.6,0,0,0,1.17-.2,5.1,5.1,0,0,0,1.25-.6V126.41a6.24,6.24,0,0,0-1.14-.64,3.32,3.32,0,0,0-1.35-.27,1.79,1.79,0,0,0-1.83,1.3,9,9,0,0,0-.48,3.13v6a19.5,19.5,0,0,0,.16,2.66,4,4,0,0,0,.68,1.87A1.81,1.81,0,0,0,651.68,141.1Z" style="fill:#263238"></path><path d="M667.84,144.18a6.54,6.54,0,0,1-3.85-1,5.12,5.12,0,0,1-1.89-2.86,17.45,17.45,0,0,1-.53-4.63v-4.84a17.18,17.18,0,0,1,.55-4.69,5.05,5.05,0,0,1,1.93-2.82,6.6,6.6,0,0,1,3.79-1,5.87,5.87,0,0,1,3.94,1.1,5.43,5.43,0,0,1,1.67,3.17,27.09,27.09,0,0,1,.4,5v1.72h-8.36v4.25a7.45,7.45,0,0,0,.24,2.09,2.16,2.16,0,0,0,.77,1.19,2.28,2.28,0,0,0,1.38.39,1.9,1.9,0,0,0,1.33-.42,2.2,2.2,0,0,0,.63-1.21,9.17,9.17,0,0,0,.16-1.85v-1.29h3.81v.81a8.29,8.29,0,0,1-1.35,5Q671.09,144.18,667.84,144.18Zm-2.35-12.93H670v-1.91a13.68,13.68,0,0,0-.15-2.21,2.36,2.36,0,0,0-.6-1.36,2,2,0,0,0-1.45-.46,2.12,2.12,0,0,0-1.44.44,2.53,2.53,0,0,0-.68,1.49,16.46,16.46,0,0,0-.19,2.87Z" style="fill:#263238"></path><path d="M677.55,142.57v-3.92l7.55-5.5-7.55-5.42v-4l10.52,7.44v3.92Z" style="fill:#263238"></path><path d="M167.37,349.69a8,8,0,0,1-4.89-1.31,6.81,6.81,0,0,1-2.42-3.56,17.18,17.18,0,0,1-.68-5V329.36a18.2,18.2,0,0,1,.68-5.24,6.29,6.29,0,0,1,2.42-3.46,8.38,8.38,0,0,1,4.89-1.23,8.29,8.29,0,0,1,4.42,1,5.84,5.84,0,0,1,2.34,2.93,13.06,13.06,0,0,1,.71,4.59v2.34h-3.92v-2.09a22.74,22.74,0,0,0-.16-2.91,3.16,3.16,0,0,0-.9-2,3.48,3.48,0,0,0-2.45-.7,3.69,3.69,0,0,0-2.57.75,3.65,3.65,0,0,0-1,2.13,18.85,18.85,0,0,0-.24,3.21V340.5a13.21,13.21,0,0,0,.37,3.53,3.05,3.05,0,0,0,1.2,1.85,4.11,4.11,0,0,0,2.28.55,3.29,3.29,0,0,0,2.42-.75,3.61,3.61,0,0,0,.91-2.07,23,23,0,0,0,.18-3.08v-2.2h3.92v2.2a15.81,15.81,0,0,1-.65,4.79,6.09,6.09,0,0,1-2.28,3.22A7.69,7.69,0,0,1,167.37,349.69Z" style="fill:#263238"></path><path d="M182.54,341.6v-6h-5.13v-3h5.13v-6h2.93v6h5.31v3h-5.31v6Z" style="fill:#263238"></path><path d="M197.75,341.6v-6h-5.13v-3h5.13v-6h2.93v6H206v3h-5.31v6Z" style="fill:#263238"></path><path d="M213,341.6v-6h-5.13v-3H213v-6h2.93v6h5.32v3h-5.32v6Z" style="fill:#263238"></path><path d="M236.57,389V359.31h7.37a8.16,8.16,0,0,1,4.27,1,5.6,5.6,0,0,1,2.32,2.8,11.9,11.9,0,0,1,.74,4.43,9.32,9.32,0,0,1-.83,4.07,5.94,5.94,0,0,1-2.44,2.66,7.93,7.93,0,0,1-4,.93h-3.26V389Zm4.14-16.79h1.91a7.89,7.89,0,0,0,2.82-.4,2.61,2.61,0,0,0,1.47-1.41,7.37,7.37,0,0,0,.44-2.84,12.85,12.85,0,0,0-.32-3.26,2.28,2.28,0,0,0-1.3-1.58,8.09,8.09,0,0,0-3.08-.44h-1.94Z" style="fill:#263238"></path><path d="M254.16,389V359.31h4.14v12.82h7.62V359.31h4.14V389h-4.14V375.1H258.3V389Z" style="fill:#263238"></path><path d="M274.72,389V359.31h7.36a8.13,8.13,0,0,1,4.27,1,5.62,5.62,0,0,1,2.33,2.8,12.12,12.12,0,0,1,.73,4.43,9.47,9.47,0,0,1-.82,4.07,6,6,0,0,1-2.44,2.66,8,8,0,0,1-4,.93h-3.26V389Zm4.14-16.79h1.9a7.89,7.89,0,0,0,2.82-.4,2.55,2.55,0,0,0,1.47-1.41,7.37,7.37,0,0,0,.44-2.84,13.42,13.42,0,0,0-.31-3.26,2.3,2.3,0,0,0-1.3-1.58,8.12,8.12,0,0,0-3.08-.44h-1.94Z" style="fill:#263238"></path><path d="M670.07,363.46l-8.49-6v-3.18l8.49-6.06v3.21L664,355.86l6.08,4.43Z" style="fill:#263238"></path><path d="M673.49,364.53v-24h3.17v8.67a9.33,9.33,0,0,1,1.93-1.42,4.81,4.81,0,0,1,2.38-.6,2.14,2.14,0,0,1,1.56.54,3,3,0,0,1,.77,1.34,5.94,5.94,0,0,1,.22,1.63v13.89h-3.17v-13a3.11,3.11,0,0,0-.27-1.43,1.14,1.14,0,0,0-1.1-.5,2.42,2.42,0,0,0-1.17.33,5.53,5.53,0,0,0-1.15.8v13.77Z" style="fill:#263238"></path><path d="M691.36,364.77a5.37,5.37,0,0,1-3.12-.78,4.15,4.15,0,0,1-1.53-2.32,14.35,14.35,0,0,1-.43-3.76V354a13.59,13.59,0,0,1,.45-3.8,4.05,4.05,0,0,1,1.56-2.28,5.28,5.28,0,0,1,3.07-.78,4.73,4.73,0,0,1,3.19.9,4.3,4.3,0,0,1,1.35,2.56,21.2,21.2,0,0,1,.33,4V356h-6.77v3.45a6.51,6.51,0,0,0,.19,1.69,1.73,1.73,0,0,0,.63,1,1.83,1.83,0,0,0,1.11.32,1.55,1.55,0,0,0,1.09-.35,1.79,1.79,0,0,0,.5-1,7.24,7.24,0,0,0,.13-1.49v-1h3.09v.65a6.67,6.67,0,0,1-1.1,4.07A4.35,4.35,0,0,1,691.36,364.77Zm-1.9-10.48h3.65v-1.54A12.82,12.82,0,0,0,693,351a2,2,0,0,0-.5-1.1,1.56,1.56,0,0,0-1.17-.37,1.71,1.71,0,0,0-1.17.36,2,2,0,0,0-.55,1.2,14,14,0,0,0-.15,2.33Z" style="fill:#263238"></path><path d="M702.2,364.77a2.86,2.86,0,0,1-1.78-.58,4,4,0,0,1-1.22-1.48,4.27,4.27,0,0,1-.45-1.92,6.07,6.07,0,0,1,.54-2.7,5.2,5.2,0,0,1,1.47-1.85,9.82,9.82,0,0,1,2.17-1.33c.82-.37,1.68-.74,2.59-1.09V352.6a10.18,10.18,0,0,0-.12-1.72,1.75,1.75,0,0,0-.48-1,1.6,1.6,0,0,0-1.12-.34,1.7,1.7,0,0,0-1,.3,1.62,1.62,0,0,0-.58.84A4.21,4.21,0,0,0,702,352v.86l-3.15-.12a6.24,6.24,0,0,1,1.31-4.2,5,5,0,0,1,3.86-1.36,4.28,4.28,0,0,1,3.62,1.4,6.57,6.57,0,0,1,1.07,4v7.84c0,.53,0,1,0,1.54s.06,1,.11,1.38.1.83.14,1.2h-2.91c-.06-.31-.14-.71-.22-1.2s-.16-.92-.2-1.32a4.7,4.7,0,0,1-1.14,1.89A3.11,3.11,0,0,1,702.2,364.77Zm1.25-2.73a1.63,1.63,0,0,0,.89-.27,4.37,4.37,0,0,0,.74-.61,3,3,0,0,0,.44-.54v-4.87c-.49.27-1,.55-1.39.83a7.1,7.1,0,0,0-1.14.87,3.69,3.69,0,0,0-.78,1,3.46,3.46,0,0,0,.11,3A1.26,1.26,0,0,0,703.45,362Z" style="fill:#263238"></path><path d="M715.74,364.77a3.63,3.63,0,0,1-3.24-1.59c-.71-1.06-1.07-2.85-1.07-5.39v-3.32a18.87,18.87,0,0,1,.33-3.64,5.6,5.6,0,0,1,1.23-2.69,3.39,3.39,0,0,1,2.66-1,3.21,3.21,0,0,1,1.57.39,5.75,5.75,0,0,1,1.28,1v-8h3.18v24H718.5v-1.09a5.54,5.54,0,0,1-1.23,1A3.09,3.09,0,0,1,715.74,364.77Zm.8-2.49a3.08,3.08,0,0,0,1-.17,3.91,3.91,0,0,0,1-.49V350.37a5.48,5.48,0,0,0-.92-.52,2.67,2.67,0,0,0-1.1-.22,1.45,1.45,0,0,0-1.48,1.05,7.37,7.37,0,0,0-.39,2.54v4.84a15.62,15.62,0,0,0,.13,2.15,3.2,3.2,0,0,0,.55,1.52A1.48,1.48,0,0,0,716.54,362.28Z" style="fill:#263238"></path><path d="M725,363.46v-3.17l6.12-4.46L725,351.44v-3.21l8.52,6v3.18Z" style="fill:#263238"></path><path d="M384.85,56.56l-8.49-6V47.38l8.49-6.06v3.21L378.76,49l6.09,4.42Z" style="fill:#263238"></path><path d="M388.44,57.63V33.58h5.23a9.25,9.25,0,0,1,4.23.81,4.72,4.72,0,0,1,2.23,2.45,10.94,10.94,0,0,1,.66,4.07v8.85a12.23,12.23,0,0,1-.66,4.3A5.14,5.14,0,0,1,398,56.72a7.77,7.77,0,0,1-4,.91Zm3.36-2.41h1.9a3.83,3.83,0,0,0,2.61-.71,3.24,3.24,0,0,0,.94-2.08,28.19,28.19,0,0,0,.16-3.3V41.32a15.39,15.39,0,0,0-.24-3,2.53,2.53,0,0,0-1-1.7,4.68,4.68,0,0,0-2.52-.53H391.8Z" style="fill:#263238"></path><path d="M404.27,57.63V33.58h3.3V57.63Z" style="fill:#263238"></path><path d="M415.64,57.63l-5.37-24.05h3.14l3.8,17.72,3.63-17.72h3.06l-5.32,24.05Z" style="fill:#263238"></path><path d="M426.3,56.56V53.38l6.12-4.45-6.12-4.4V41.32l8.52,6v3.18Z" style="fill:#263238"></path></g><g id="freepik--Tab--inject-691"><path d="M83.7,29.24H322a8.52,8.52,0,0,1,8.52,8.52V283.7a0,0,0,0,1,0,0H75.18a0,0,0,0,1,0,0V37.76a8.52,8.52,0,0,1,8.52-8.52Z" style="fill:#263238"></path><path d="M330.5,284.2H75.18a.51.51,0,0,1-.5-.5V37.76a9,9,0,0,1,9-9H322a9,9,0,0,1,9,9V283.7A.51.51,0,0,1,330.5,284.2Zm-254.82-1H330V37.76a8,8,0,0,0-8-8H83.7a8,8,0,0,0-8,8Z" style="fill:#263238"></path><path d="M89.52,23.43H327.79A8.52,8.52,0,0,1,336.31,32V277.88a0,0,0,0,1,0,0H81a0,0,0,0,1,0,0V32A8.52,8.52,0,0,1,89.52,23.43Z" style="fill:#fff"></path><path d="M336.31,278.38H81a.5.5,0,0,1-.5-.5V32a9,9,0,0,1,9-9H327.79a9,9,0,0,1,9,9V277.88A.5.5,0,0,1,336.31,278.38Zm-254.82-1H335.81V32a8,8,0,0,0-8-8H89.52a8,8,0,0,0-8,8Z" style="fill:#263238"></path><path d="M89.52,23.43H327.79A8.52,8.52,0,0,1,336.31,32v15.8a0,0,0,0,1,0,0H81a0,0,0,0,1,0,0V32A8.52,8.52,0,0,1,89.52,23.43Z" style="fill:#92E3A9"></path><path d="M336.31,48.25H81a.5.5,0,0,1-.5-.5V32a9,9,0,0,1,9-9H327.79a9,9,0,0,1,9,9v15.8A.5.5,0,0,1,336.31,48.25Zm-254.82-1H335.81V32a8,8,0,0,0-8-8H89.52a8,8,0,0,0-8,8Z" style="fill:#263238"></path><path d="M295.24,36.37a4,4,0,1,0-4,4A4,4,0,0,0,295.24,36.37Z" style="fill:#fff"></path><path d="M291.28,40.83a4.47,4.47,0,1,1,4.46-4.46A4.46,4.46,0,0,1,291.28,40.83Zm0-7.93a3.47,3.47,0,1,0,3.46,3.47A3.47,3.47,0,0,0,291.28,32.9Z" style="fill:#263238"></path><path d="M307.14,36.37a4,4,0,1,0-4,4A4,4,0,0,0,307.14,36.37Z" style="fill:#fff"></path><path d="M303.17,40.83a4.47,4.47,0,1,1,4.47-4.46A4.46,4.46,0,0,1,303.17,40.83Zm0-7.93a3.47,3.47,0,1,0,3.47,3.47A3.47,3.47,0,0,0,303.17,32.9Z" style="fill:#263238"></path><path d="M319,36.37a4,4,0,1,0-4,4A4,4,0,0,0,319,36.37Z" style="fill:#263238"></path><path d="M315.06,40.83a4.47,4.47,0,1,1,4.47-4.46A4.46,4.46,0,0,1,315.06,40.83Zm0-7.93a3.47,3.47,0,1,0,3.47,3.47A3.47,3.47,0,0,0,315.06,32.9Z" style="fill:#263238"></path><path d="M126,63.79H107.19a1.5,1.5,0,0,1,0-3H126a1.5,1.5,0,0,1,0,3Z" style="fill:#263238"></path><path d="M177.72,74.82H107.19a1.5,1.5,0,0,1,0-3h70.53a1.5,1.5,0,0,1,0,3Z" style="fill:#c4c4c4"></path><path d="M286.81,74.82H216.28a1.5,1.5,0,0,1,0-3h70.53a1.5,1.5,0,0,1,0,3Z" style="fill:#c4c4c4"></path><path d="M210.19,74.82h-27.9a1.5,1.5,0,0,1,0-3h27.9a1.5,1.5,0,0,1,0,3Z" style="fill:#263238"></path><path d="M147.78,85.85H107.19a1.5,1.5,0,0,1,0-3h40.59a1.5,1.5,0,0,1,0,3Z" style="fill:#263238"></path><path d="M193.45,85.85H152.86a1.5,1.5,0,0,1,0-3h40.59a1.5,1.5,0,0,1,0,3Z" style="fill:#263238"></path><path d="M239.11,85.85H198.52a1.5,1.5,0,0,1,0-3h40.59a1.5,1.5,0,0,1,0,3Z" style="fill:#263238"></path><path d="M261.44,85.85H244.19a1.5,1.5,0,0,1,0-3h17.25a1.5,1.5,0,0,1,0,3Z" style="fill:#263238"></path><path d="M149.81,63.79H131a1.5,1.5,0,0,1,0-3h18.77a1.5,1.5,0,0,1,0,3Z" style="fill:#263238"></path><path d="M261.44,63.79H242.67a1.5,1.5,0,0,1,0-3h18.77a1.5,1.5,0,0,1,0,3Z" style="fill:#263238"></path><path d="M236.58,63.79H217.8a1.5,1.5,0,0,1,0-3h18.78a1.5,1.5,0,0,1,0,3Z" style="fill:#c4c4c4"></path><path d="M209.68,63.79H154.89a1.5,1.5,0,0,1,0-3h54.79a1.5,1.5,0,0,1,0,3Z" style="fill:#263238"></path><path d="M126,131.12H107.19a1.5,1.5,0,0,1,0-3H126a1.5,1.5,0,0,1,0,3Z" style="fill:#263238"></path><path d="M177.72,142.15H107.19a1.5,1.5,0,0,1,0-3h70.53a1.5,1.5,0,0,1,0,3Z" style="fill:#c4c4c4"></path><path d="M286.81,142.15H216.28a1.5,1.5,0,0,1,0-3h70.53a1.5,1.5,0,0,1,0,3Z" style="fill:#263238"></path><path d="M210.19,142.15h-27.9a1.5,1.5,0,0,1,0-3h27.9a1.5,1.5,0,0,1,0,3Z" style="fill:#263238"></path><path d="M147.78,153.17H107.19a1.5,1.5,0,0,1,0-3h40.59a1.5,1.5,0,0,1,0,3Z" style="fill:#263238"></path><path d="M193.45,153.17H152.86a1.5,1.5,0,0,1,0-3h40.59a1.5,1.5,0,0,1,0,3Z" style="fill:#263238"></path><path d="M239.11,153.17H198.52a1.5,1.5,0,0,1,0-3h40.59a1.5,1.5,0,0,1,0,3Z" style="fill:#c4c4c4"></path><path d="M261.44,153.17H244.19a1.5,1.5,0,0,1,0-3h17.25a1.5,1.5,0,0,1,0,3Z" style="fill:#263238"></path><path d="M149.81,131.12H131a1.5,1.5,0,1,1,0-3h18.77a1.5,1.5,0,0,1,0,3Z" style="fill:#263238"></path><path d="M261.44,131.12H242.67a1.5,1.5,0,1,1,0-3h18.77a1.5,1.5,0,0,1,0,3Z" style="fill:#263238"></path><path d="M236.58,131.12H217.8a1.5,1.5,0,0,1,0-3h18.78a1.5,1.5,0,1,1,0,3Z" style="fill:#c4c4c4"></path><path d="M209.68,131.12H154.89a1.5,1.5,0,0,1,0-3h54.79a1.5,1.5,0,0,1,0,3Z" style="fill:#263238"></path><path d="M126,230.37H107.19a1.5,1.5,0,0,1,0-3H126a1.5,1.5,0,0,1,0,3Z" style="fill:#263238"></path><path d="M177.72,241.4H107.19a1.5,1.5,0,0,1,0-3h70.53a1.5,1.5,0,0,1,0,3Z" style="fill:#c4c4c4"></path><path d="M286.81,241.4H216.28a1.5,1.5,0,0,1,0-3h70.53a1.5,1.5,0,0,1,0,3Z" style="fill:#263238"></path><path d="M210.19,241.4h-27.9a1.5,1.5,0,0,1,0-3h27.9a1.5,1.5,0,0,1,0,3Z" style="fill:#263238"></path><path d="M147.78,252.42H107.19a1.5,1.5,0,0,1,0-3h40.59a1.5,1.5,0,0,1,0,3Z" style="fill:#263238"></path><path d="M193.45,252.42H152.86a1.5,1.5,0,0,1,0-3h40.59a1.5,1.5,0,0,1,0,3Z" style="fill:#263238"></path><path d="M239.11,252.42H198.52a1.5,1.5,0,0,1,0-3h40.59a1.5,1.5,0,0,1,0,3Z" style="fill:#c4c4c4"></path><path d="M261.44,252.42H244.19a1.5,1.5,0,0,1,0-3h17.25a1.5,1.5,0,0,1,0,3Z" style="fill:#263238"></path><path d="M149.81,230.37H131a1.5,1.5,0,1,1,0-3h18.77a1.5,1.5,0,0,1,0,3Z" style="fill:#263238"></path><path d="M261.44,230.37H242.67a1.5,1.5,0,1,1,0-3h18.77a1.5,1.5,0,0,1,0,3Z" style="fill:#263238"></path><path d="M236.58,230.37H217.8a1.5,1.5,0,0,1,0-3h18.78a1.5,1.5,0,1,1,0,3Z" style="fill:#c4c4c4"></path><path d="M209.68,230.37H154.89a1.5,1.5,0,0,1,0-3h54.79a1.5,1.5,0,0,1,0,3Z" style="fill:#263238"></path><path d="M231.5,97.45H212.73a1.5,1.5,0,0,1,0-3H231.5a1.5,1.5,0,0,1,0,3Z" style="fill:#263238"></path><path d="M206.64,97.45H187.87a1.5,1.5,0,0,1,0-3h18.77a1.5,1.5,0,0,1,0,3Z" style="fill:#263238"></path><path d="M179.75,97.45H125a1.5,1.5,0,0,1,0-3h54.8a1.5,1.5,0,0,1,0,3Z" style="fill:#263238"></path><path d="M231.5,117.19H212.73a1.5,1.5,0,1,1,0-3H231.5a1.5,1.5,0,0,1,0,3Z" style="fill:#263238"></path><path d="M206.64,117.19H187.87a1.5,1.5,0,0,1,0-3h18.77a1.5,1.5,0,0,1,0,3Z" style="fill:#263238"></path><path d="M179.75,117.19H125a1.5,1.5,0,1,1,0-3h54.8a1.5,1.5,0,0,1,0,3Z" style="fill:#c4c4c4"></path><path d="M143.72,107.32H125a1.5,1.5,0,1,1,0-3h18.77a1.5,1.5,0,0,1,0,3Z" style="fill:#263238"></path><path d="M168.59,107.32H149.81a1.5,1.5,0,0,1,0-3h18.78a1.5,1.5,0,0,1,0,3Z" style="fill:#263238"></path><path d="M231.5,107.32H176.7a1.5,1.5,0,0,1,0-3h54.8a1.5,1.5,0,0,1,0,3Z" style="fill:#c4c4c4"></path><path d="M231.5,166.52H212.73a1.5,1.5,0,0,1,0-3H231.5a1.5,1.5,0,0,1,0,3Z" style="fill:#263238"></path><path d="M206.64,166.52H187.87a1.5,1.5,0,0,1,0-3h18.77a1.5,1.5,0,0,1,0,3Z" style="fill:#263238"></path><path d="M179.75,166.52H125a1.5,1.5,0,0,1,0-3h54.8a1.5,1.5,0,0,1,0,3Z" style="fill:#263238"></path><path d="M231.5,186.26H212.73a1.5,1.5,0,0,1,0-3H231.5a1.5,1.5,0,0,1,0,3Z" style="fill:#263238"></path><path d="M206.64,186.26H187.87a1.5,1.5,0,0,1,0-3h18.77a1.5,1.5,0,0,1,0,3Z" style="fill:#263238"></path><path d="M179.75,186.26H125a1.5,1.5,0,1,1,0-3h54.8a1.5,1.5,0,0,1,0,3Z" style="fill:#c4c4c4"></path><path d="M143.72,176.39H125a1.5,1.5,0,1,1,0-3h18.77a1.5,1.5,0,1,1,0,3Z" style="fill:#263238"></path><path d="M168.59,176.39H149.81a1.5,1.5,0,0,1,0-3h18.78a1.5,1.5,0,1,1,0,3Z" style="fill:#263238"></path><path d="M231.5,176.39H176.7a1.5,1.5,0,0,1,0-3h54.8a1.5,1.5,0,0,1,0,3Z" style="fill:#c4c4c4"></path><path d="M143.72,197.87H125a1.5,1.5,0,1,1,0-3h18.77a1.5,1.5,0,1,1,0,3Z" style="fill:#263238"></path><path d="M168.59,197.87H149.81a1.5,1.5,0,0,1,0-3h18.78a1.5,1.5,0,1,1,0,3Z" style="fill:#263238"></path><path d="M231.5,197.87H176.7a1.5,1.5,0,0,1,0-3h54.8a1.5,1.5,0,0,1,0,3Z" style="fill:#c4c4c4"></path><path d="M143.72,217.6H125a1.5,1.5,0,0,1,0-3h18.77a1.5,1.5,0,0,1,0,3Z" style="fill:#263238"></path><path d="M168.59,217.6H149.81a1.5,1.5,0,0,1,0-3h18.78a1.5,1.5,0,0,1,0,3Z" style="fill:#263238"></path><path d="M231.5,217.6H176.7a1.5,1.5,0,0,1,0-3h54.8a1.5,1.5,0,0,1,0,3Z" style="fill:#c4c4c4"></path><path d="M231.5,207.73H212.73a1.5,1.5,0,0,1,0-3H231.5a1.5,1.5,0,0,1,0,3Z" style="fill:#263238"></path><path d="M206.64,207.73H187.87a1.5,1.5,0,0,1,0-3h18.77a1.5,1.5,0,0,1,0,3Z" style="fill:#263238"></path><path d="M179.75,207.73H125a1.5,1.5,0,0,1,0-3h54.8a1.5,1.5,0,0,1,0,3Z" style="fill:#c4c4c4"></path><rect x="94.23" y="58.46" width="5.99" height="6.77" style="fill:#263238"></rect><rect x="94.23" y="69.59" width="5.99" height="6.77" style="fill:#263238"></rect><rect x="94.23" y="80.71" width="5.99" height="6.77" style="fill:#263238"></rect><rect x="94.23" y="91.84" width="5.99" height="6.77" style="fill:#263238"></rect><rect x="94.23" y="102.96" width="5.99" height="6.77" style="fill:#263238"></rect><rect x="94.23" y="114.09" width="5.99" height="6.77" style="fill:#263238"></rect><rect x="94.23" y="125.22" width="5.99" height="6.77" style="fill:#263238"></rect><rect x="94.23" y="136.34" width="5.99" height="6.77" style="fill:#263238"></rect><rect x="94.23" y="147.47" width="5.99" height="6.77" style="fill:#263238"></rect><rect x="94.23" y="158.59" width="5.99" height="6.77" style="fill:#263238"></rect><rect x="94.23" y="169.72" width="5.99" height="6.77" style="fill:#263238"></rect><rect x="94.23" y="180.84" width="5.99" height="6.77" style="fill:#263238"></rect><rect x="94.23" y="191.97" width="5.99" height="6.77" style="fill:#263238"></rect><rect x="94.23" y="203.09" width="5.99" height="6.77" style="fill:#263238"></rect><rect x="94.23" y="214.22" width="5.99" height="6.77" style="fill:#263238"></rect><rect x="94.23" y="225.35" width="5.99" height="6.77" style="fill:#263238"></rect><rect x="94.23" y="236.47" width="5.99" height="6.77" style="fill:#263238"></rect><rect x="94.23" y="247.6" width="5.99" height="6.77" style="fill:#263238"></rect></g><g id="freepik--character-3--inject-691"><path d="M515.42,227l5.89,22.4a130,130,0,0,0-8.25,11.55c-4.71,7.31-13.44,21-17.21,24.76s-5.43,4.48-5.43,4.48-8.48-.71-12.26.47-8.25,4.95-9,5.66,29.24,0,29.24,0,1.89,0,3.77-3.06S524.14,277.44,531,268s9-15.57,9-15.57S524.61,231,523,228.86,515.89,224.38,515.42,227Z" style="fill:#bababa"></path><path d="M477.56,297.12c-8.57,0-8.72-.34-8.83-.59a.56.56,0,0,1,.12-.58c.56-.56,5.16-4.53,9.16-5.79,3.6-1.12,11.15-.59,12.32-.5a25.63,25.63,0,0,0,5.16-4.32c3.51-3.51,11.47-15.87,16.23-23.25l.92-1.43a137.62,137.62,0,0,1,8.12-11.4l-5.82-22.15a.42.42,0,0,1,0-.22,1.78,1.78,0,0,1,1.4-1.47c2-.49,5.64,1.35,7,3.14,1.64,2.1,16.36,22.72,17,23.59a.5.5,0,0,1,.06.46c-.08.25-2.22,6.31-9,15.69-4.26,5.87-13.63,13-20.47,18.28-4.08,3.12-7.6,5.82-8.28,6.92-2,3.26-4.11,3.3-4.2,3.3C488.53,297,481.94,297.12,477.56,297.12ZM470.27,296c3.74.24,18.28,0,28.16-.21,0,0,1.67-.08,3.36-2.83.77-1.25,4-3.74,8.53-7.19,6.79-5.19,16.08-12.31,20.26-18.07,6-8.22,8.33-14,8.8-15.19-1.61-2.26-15.27-21.37-16.81-23.35-1.15-1.47-4.44-3.17-6-2.78a.8.8,0,0,0-.64.58l5.87,22.28a.52.52,0,0,1-.1.45,127.89,127.89,0,0,0-8.22,11.5l-.92,1.43c-4.78,7.42-12.78,19.84-16.36,23.41-3.8,3.8-5.51,4.56-5.58,4.59a.61.61,0,0,1-.24,0c-.08,0-8.43-.69-12.07.45C475.39,292,471.87,294.66,470.27,296Z" style="fill:#263238"></path><path d="M536.31,247.37c-4.64-6.49-12.21-17.05-13.35-18.51-1.65-2.12-7.07-4.48-7.54-1.88l5.09,19.34C523.8,247.7,530.53,249.83,536.31,247.37Z" style="fill:#92E3A9"></path><path d="M530.39,249a27.19,27.19,0,0,1-10.08-2.22.52.52,0,0,1-.29-.34l-5.08-19.33a.42.42,0,0,1,0-.22,1.78,1.78,0,0,1,1.4-1.47c2-.49,5.64,1.35,7,3.14,1.14,1.47,8.86,12.23,13.36,18.51a.54.54,0,0,1,.07.43.49.49,0,0,1-.28.33A15.73,15.73,0,0,1,530.39,249ZM520.93,246c3.3,1.35,9.3,3.14,14.6,1.19-4.53-6.34-11.86-16.55-13-18s-4.44-3.17-6-2.78a.8.8,0,0,0-.64.58Z" style="fill:#263238"></path><path d="M474.63,297.27c-.41,0-2.5,0-3.28-1a1.24,1.24,0,0,1-.28-1c.2-1.24,2-1.84,5.44-1.84a9.8,9.8,0,0,0,2.2-.73,14.08,14.08,0,0,1,2.67-.91,44,44,0,0,1,6.5.23.5.5,0,0,1,.45.55.53.53,0,0,1-.55.45,41.84,41.84,0,0,0-6.23-.24,14.08,14.08,0,0,0-2.46.84,8.65,8.65,0,0,1-2.58.81c-4.17,0-4.44.9-4.46,1a.26.26,0,0,0,.07.22,4.32,4.32,0,0,0,2.51.61.51.51,0,0,1,.5.5A.5.5,0,0,1,474.63,297.27Z" style="fill:#263238"></path><path d="M543,276.94s-26.27,71.38-27.27,75.7-4.65,56.15-5,57.15-3.32,28.57-3.32,28.57a98.33,98.33,0,0,1-9,8c-3.65,2.66-11.3,3.66-12.62,7.31s7.64,3.66,9,3.33,26.24-1.33,26.24-1.33,7.65,1.66,8.31-2S527,435,527,435s3.33-8.64,4-11.3.67-6.31,1-7.31,14-57.15,14-57.15l23.93-42.95,8.3,3.65,18.61,42.63,39.54,64.79-3,5.64,3,7.31s-4.32,14.62-3,16.28,24.58,0,24.58,0,2.33.67,2.66-3.32a20.34,20.34,0,0,0-1-7.64s-2.66-5.65-3-6.65,0-5.31-.34-7.64-3.65-7.31-4.65-10S626.71,356,626.71,356L611.1,271.31,547.3,269Z" style="fill:#263238"></path><path d="M640.86,457.87c-4.06,0-7.33-.23-7.89-.92-1.37-1.71,1.77-12.89,2.85-16.57l-2.93-7.15a.52.52,0,0,1,0-.42l2.85-5.4-39.39-64.54-18.56-42.51L570.11,317l-23.67,42.5c-.75,3.1-13.61,56.12-14,57.12a16,16,0,0,0-.3,2.35,32.84,32.84,0,0,1-.68,4.92c-.63,2.51-3.52,10.07-4,11.22.33,1.63,3,15.1,2.3,18.65a2.8,2.8,0,0,1-1.26,1.89c-2.3,1.54-7,.65-7.58.52-10,.4-25.15,1.08-26.08,1.31s-7.26.43-9.16-1.68a2.14,2.14,0,0,1-.4-2.3c.89-2.46,4.25-3.76,7.49-5a24.75,24.75,0,0,0,5.31-2.52,98.07,98.07,0,0,0,8.78-7.8c.39-3.55,3-27.5,3.33-28.5.13-.55.79-9,1.49-17.92,1.27-16.25,2.86-36.49,3.48-39.18,1-4.31,26.21-72.85,27.29-75.77,0,0,0,0,0-.06l4.29-7.95a.48.48,0,0,1,.46-.26l63.79,2.32a.5.5,0,0,1,.48.41l15.61,84.65c.22.54,23.91,62.74,24.9,65.37a37.54,37.54,0,0,0,2,4c1.22,2.26,2.48,4.6,2.69,6.06a35.48,35.48,0,0,1,.17,4.39,17.71,17.71,0,0,0,.14,3.17c.25.76,2,4.64,3,6.59a20.46,20.46,0,0,1,1,7.89c-.14,1.68-.64,2.83-1.49,3.42a2.29,2.29,0,0,1-1.7.37C654.57,457.38,646.85,457.87,640.86,457.87Zm-7-24.8,2.9,7.09a.57.57,0,0,1,0,.34c-2,6.91-3.8,14.92-3.08,15.82,1,.89,13,.61,24.16-.19l.17,0a1.22,1.22,0,0,0,1-.21,3.61,3.61,0,0,0,1-2.67,20.08,20.08,0,0,0-1-7.43c-.1-.19-2.66-5.64-3-6.66a15.23,15.23,0,0,1-.19-3.48,34.91,34.91,0,0,0-.16-4.25c-.19-1.29-1.46-3.65-2.58-5.73a38,38,0,0,1-2.05-4.13c-1-2.63-24.68-64.82-24.91-65.45L610.68,271.8l-63.09-2.3-4.13,7.64c-.69,1.89-26.26,71.41-27.23,75.61-.61,2.63-2.26,23.67-3.47,39-1,12.86-1.4,17.75-1.53,18.15-.25.86-2.11,17.5-3.3,28.47a.47.47,0,0,1-.14.3,99.52,99.52,0,0,1-9,8,25.67,25.67,0,0,1-5.54,2.64c-3,1.18-6.18,2.4-6.92,4.43a1.17,1.17,0,0,0,.21,1.29c1.42,1.57,7,1.67,8.17,1.38,1.34-.33,23.8-1.24,26.36-1.34h.12c.05,0,4.81,1,6.87-.36a1.82,1.82,0,0,0,.84-1.24c.64-3.52-2.3-18.27-2.32-18.42a.42.42,0,0,1,0-.27c0-.09,3.32-8.64,4-11.24a32.74,32.74,0,0,0,.66-4.77,14.69,14.69,0,0,1,.34-2.58c.29-.88,9.25-37.74,14-57.11a.31.31,0,0,1,0-.12l23.92-43a.51.51,0,0,1,.64-.21l8.3,3.65a.55.55,0,0,1,.26.26l18.61,42.63,39.5,64.72a.5.5,0,0,1,0,.5Zm-126.48,5.29h0Z" style="fill:#263238"></path><path d="M518,192.55s-9.9,4.72-10.61,19.34,16.51,24.76,16.51,24.76,9.43,11.08,15.56,17.92,3.49,7.94,4,9.12-.42,13.25-.42,13.25,27.58,7.07,44.32,5.66,24.53-5.9,24.53-5.9,1.78-7.19-1.29-16.86-6-14.71-6.26-16.83-12.26-38.9-12.26-38.9,16.27,2.83,24.05,3.53l7.78.71s4.72,21.46,8.25,32.78,5.43,24.28,7.55,25.7,6.6,1.41,8,2.12,3.77,5.89,5.89,7.07,2.12-1.18,2.12-1.18,2.6.24,2.83-1.18,3.07-4.48,1.42-7.31-17.21-7.54-17.21-7.54-2.13-52.58-3.31-59.18L638.27,193s-17.45-9-22.4-10.37-18.63-5-18.63-5-10.38-7.78-23.11-6.6A140.43,140.43,0,0,0,548,176.28c-2.36.71-7.55,4-7.55,4Z" style="fill:#bababa"></path><path d="M582.59,283.28c-16.64,0-39.46-5.79-39.71-5.86a.5.5,0,0,1-.37-.52c.37-4.95.75-12.26.46-13a1.89,1.89,0,0,1,0-1.2c.23-1,.62-2.75-3.88-7.77-5.83-6.5-14.75-17-15.52-17.87-1.24-.76-17.37-10.91-16.68-25.17.7-14.46,10.41-19.52,10.88-19.75l22.39-12.26c.19-.12,5.25-3.33,7.64-4a141.16,141.16,0,0,1,26.27-5.2c12.19-1.13,22.36,5.91,23.37,6.64,1.21.31,13.86,3.59,18.55,4.93,4.94,1.41,21.78,10,22.49,10.41a.5.5,0,0,1,.27.36l1.18,6.6c1.13,6.35,3.09,53.9,3.29,58.89,2.68.83,15.55,4.91,17.16,7.67,1.32,2.26.08,4.65-.73,6.23a6.14,6.14,0,0,0-.62,1.42c-.22,1.28-1.74,1.61-2.88,1.61h0a1.86,1.86,0,0,1-.8,1.3,2,2,0,0,1-2-.2c-1.26-.7-2.48-2.52-3.65-4.27a11.11,11.11,0,0,0-2.23-2.79,11.92,11.92,0,0,0-2.68-.6c-1.89-.31-4-.65-5.39-1.56s-2.35-4.84-4.14-12.3c-1-4.26-2.17-9.09-3.6-13.67-3.26-10.41-7.55-29.6-8.19-32.45l-7.41-.68c-6.72-.61-19.87-2.82-23.28-3.4,1.8,5.49,11.81,36.22,12,38.22a22.69,22.69,0,0,0,1.67,4.58c1.2,2.86,2.86,6.77,4.57,12.15,3.07,9.69,1.37,16.83,1.29,17.13a.49.49,0,0,1-.23.31c-.33.19-8.07,4.56-24.73,6C585.86,283.22,584.26,283.28,582.59,283.28Zm-39.05-6.73c3.47.86,28.39,6.84,43.75,5.55,15-1.27,22.84-5.06,24.13-5.73A34.37,34.37,0,0,0,610.09,260c-1.69-5.34-3.33-9.22-4.53-12.06a23.23,23.23,0,0,1-1.75-4.86c-.18-1.64-8.08-26.1-12.23-38.81a.49.49,0,0,1,.09-.48.52.52,0,0,1,.47-.17c.16,0,16.33,2.84,24,3.54l7.78.7a.51.51,0,0,1,.44.39c0,.22,4.75,21.57,8.24,32.74,1.44,4.6,2.6,9.45,3.63,13.73,1.34,5.64,2.62,11,3.72,11.7s3.29,1.13,5,1.4a11.86,11.86,0,0,1,3,.69c.76.38,1.62,1.66,2.61,3.13s2.26,3.37,3.31,3.95c.45.26.81.34,1,.22s.36-.71.36-1a.5.5,0,0,1,.17-.37.51.51,0,0,1,.38-.12c.56,0,2.16,0,2.29-.77a6.71,6.71,0,0,1,.72-1.71c.8-1.55,1.8-3.48.76-5.26-1.14-1.95-10.75-5.45-16.93-7.32a.49.49,0,0,1-.35-.46c0-.53-2.14-52.62-3.3-59.12l-1.13-6.35c-2-1-17.54-8.93-22.09-10.23-4.89-1.4-18.48-4.91-18.62-4.95a.38.38,0,0,1-.17-.08c-.1-.08-10.37-7.66-22.76-6.51a139.66,139.66,0,0,0-26.08,5.17c-2.26.68-7.37,3.92-7.42,4L518.25,193h0c-.1.05-9.64,4.79-10.33,18.91s16.09,24.2,16.26,24.3a.69.69,0,0,1,.13.11c.09.11,9.5,11.16,15.55,17.91,4.85,5.41,4.39,7.45,4.11,8.66a1.15,1.15,0,0,0-.05.61C544.36,264.66,543.73,273.81,543.54,276.55Zm-25.53-84h0Z" style="fill:#263238"></path><path d="M655.71,275.34a.5.5,0,0,1-.48-.38l-1.6-6.39a21.36,21.36,0,0,0-4.52-2.19.5.5,0,0,1-.5-.5.51.51,0,0,1,.5-.5c1,0,4.24,1.86,5.21,2.43a.52.52,0,0,1,.23.31l1.65,6.6a.51.51,0,0,1-.36.61Z" style="fill:#263238"></path><path d="M604.31,243c-.23-2.12-12.26-38.9-12.26-38.9s7.91,1.37,15.33,2.44l2.77-25.46c-5.82-1.56-12.91-3.39-12.91-3.39s-10.38-7.78-23.11-6.6A140.43,140.43,0,0,0,548,176.28c-2.36.71-7.55,4-7.55,4L518,192.55s-9.9,4.72-10.61,19.34,16.51,24.76,16.51,24.76,9.43,11.08,15.56,17.92,3.49,7.94,4,9.12-.42,13.25-.42,13.25,27.58,7.07,44.32,5.66,24.53-5.9,24.53-5.9,1.78-7.19-1.29-16.86S604.55,245.13,604.31,243Z" style="fill:#92E3A9"></path><path d="M582.59,283.28c-16.64,0-39.46-5.79-39.71-5.86a.5.5,0,0,1-.37-.52c.37-4.95.75-12.26.46-13a1.89,1.89,0,0,1,0-1.2c.23-1,.62-2.75-3.88-7.77-5.83-6.5-14.75-17-15.52-17.87-1.24-.76-17.37-10.91-16.68-25.17.72-14.74,10.8-19.71,10.9-19.76l22.37-12.25c.19-.12,5.25-3.33,7.64-4a141.16,141.16,0,0,1,26.27-5.2c12.19-1.13,22.36,5.91,23.37,6.64.85.22,7.4,1.91,12.83,3.36a.52.52,0,0,1,.37.54l-2.77,25.47a.47.47,0,0,1-.19.34.52.52,0,0,1-.38.1c-6-.86-12.31-1.93-14.53-2.31,1.8,5.49,11.81,36.22,12,38.22h0a22.69,22.69,0,0,0,1.67,4.58c1.2,2.86,2.86,6.77,4.57,12.15,3.07,9.69,1.37,16.83,1.29,17.13a.49.49,0,0,1-.23.31c-.33.19-8.07,4.56-24.73,6C585.86,283.22,584.26,283.28,582.59,283.28Zm-39.05-6.73c3.47.86,28.39,6.84,43.75,5.55,15-1.27,22.84-5.06,24.13-5.73A34.37,34.37,0,0,0,610.09,260c-1.69-5.34-3.33-9.22-4.53-12.06a23.23,23.23,0,0,1-1.75-4.86h0c-.18-1.64-8.08-26.1-12.23-38.81a.49.49,0,0,1,.09-.48.52.52,0,0,1,.47-.17c.07,0,7.62,1.33,14.8,2.37l2.67-24.52c-5.74-1.53-12.5-3.28-12.5-3.28a.38.38,0,0,1-.17-.08c-.1-.08-10.37-7.66-22.76-6.51a139.66,139.66,0,0,0-26.08,5.17c-2.26.68-7.37,3.92-7.42,4L518.25,193c-.12.06-9.66,4.8-10.35,18.92s16.09,24.2,16.26,24.3a.69.69,0,0,1,.13.11c.09.11,9.5,11.16,15.55,17.91,4.85,5.41,4.39,7.45,4.11,8.66a1.15,1.15,0,0,0-.05.61C544.36,264.66,543.73,273.81,543.54,276.55Z" style="fill:#263238"></path><path d="M500.52,165s7.42,16.75,8.86,20.34,11.33,14.5,13.16,16.27c3.12,3,9.34,1.2,9.34,1.2s6.94,4.55,12.21,1.44,7.18-8.14,5.74-14.36a61.59,61.59,0,0,0-5-12.93c.11.21,2.93-3.33,3.07-3.66,1-2.38.66-6.19-.36-8.55a3.7,3.7,0,0,0-2.22-2.27,11.45,11.45,0,0,0-1.44-.12s-5.75-14.12-9.82-18.43-15-4.51-24.12,1.71S498.13,159,500.52,165Z" style="fill:#bababa"></path><path d="M539.86,205.86a17,17,0,0,1-8.06-2.49c-1.18.31-6.62,1.52-9.61-1.39-1.72-1.67-11.79-12.74-13.28-16.44-1.41-3.54-8.77-20.16-8.84-20.33v0c-2.68-6.69.81-14,9.57-19.95,9.42-6.45,20.61-6,24.77-1.64,3.53,3.74,8.79,15.62,9.78,18.26a6,6,0,0,1,1.26.16,4.2,4.2,0,0,1,2.53,2.54c1,2.39,1.45,6.39.36,8.95a30.43,30.43,0,0,1-2.9,3.59,61.93,61.93,0,0,1,4.89,12.69c1.51,6.54-.56,11.7-6,14.9A8.71,8.71,0,0,1,539.86,205.86Zm-8-3.53a.45.45,0,0,1,.27.08c.07,0,6.75,4.34,11.68,1.42s6.92-7.74,5.51-13.82a60.76,60.76,0,0,0-5-12.8h0a.49.49,0,0,1,.2-.67l.09,0a34.55,34.55,0,0,0,2.77-3.4c1-2.3.58-5.95-.37-8.14a3.15,3.15,0,0,0-1.91-2c-.11,0-1-.1-1.21-.1h-.13a.51.51,0,0,1-.42-.31c0-.14-5.75-14.07-9.71-18.27s-14.47-4.39-23.48,1.77c-8.33,5.71-11.69,12.54-9.21,18.75.2.46,7.45,16.83,8.86,20.36,1.35,3.36,11,14.06,13.05,16.09,2.87,2.8,8.79,1.1,8.85,1.09A.32.32,0,0,1,531.88,202.33Z" style="fill:#263238"></path><path d="M543.85,162.37s-5.75-14.12-9.82-18.43-15-4.51-24.12,1.71S498.13,159,500.52,165l.53,1.18h0s.19-2.64,1.89-2.26,9,3.39,13.76.19,6.4-6.22,9.61-6.22,6.4,5.47,8.1,8.48,5.84,1.13,5.84,1.13S541.6,163.08,543.85,162.37Z" style="fill:#263238"></path><path d="M537.59,168.59a3.92,3.92,0,0,1-3.62-2c-1.26-2.25-4.62-8.23-7.66-8.23-1.87,0-3.18,1.13-5.17,2.85a43.65,43.65,0,0,1-4.16,3.28c-4.22,2.87-10.22,1.06-13.11.19-.44-.14-.8-.25-1-.3a.65.65,0,0,0-.59.1,2.85,2.85,0,0,0-.69,1.71.5.5,0,0,1-.54.46.49.49,0,0,1-.42-.3l-.52-1.18c-2.69-6.71.8-14,9.56-20,9.42-6.45,20.61-6,24.77-1.64,3.91,4.15,10,18.27,10,18.77a.51.51,0,0,1-.35.48c-1.64.51-2.91,3.64-3.27,4.81a.52.52,0,0,1-.27.31A7.26,7.26,0,0,1,537.59,168.59ZM526.31,157.4c3.21,0,6.25,4.67,8.54,8.74,1.27,2.26,4.2,1.31,5,1,.29-.88,1.46-4,3.35-5-1-2.44-6-14.05-9.53-17.82-3.88-4.11-14.47-4.39-23.48,1.77-8.26,5.66-11.63,12.43-9.27,18.6a2.45,2.45,0,0,1,.72-.94,1.69,1.69,0,0,1,1.41-.28c.25.06.63.17,1.11.32,2.74.83,8.43,2.55,12.25,0a42.89,42.89,0,0,0,4.08-3.22C522.56,158.7,524.07,157.4,526.31,157.4Z" style="fill:#263238"></path><path d="M531.88,202.82a11.93,11.93,0,0,0,5.17-2.89c1.88-2.08,3.58-6.6,3.58-6.6l-.57,11.5s-.37.37-3,0A15.07,15.07,0,0,1,531.88,202.82Z" style="fill:#263238"></path><path d="M539,205.49a13.78,13.78,0,0,1-7.39-2.24.5.5,0,0,1,.15-.91,11.57,11.57,0,0,0,4.92-2.75c1.8-2,3.47-6.39,3.48-6.44a.51.51,0,0,1,.57-.31.5.5,0,0,1,.4.51l-.57,11.5a.47.47,0,0,1-.14.33A2.23,2.23,0,0,1,539,205.49ZM533.12,203a13.42,13.42,0,0,0,4,1.38,9.41,9.41,0,0,0,2.46.13l.41-8.38a18.23,18.23,0,0,1-2.57,4.18A11.09,11.09,0,0,1,533.12,203Z" style="fill:#263238"></path><path d="M522.38,192.16a2.88,2.88,0,0,1-1.41-.28c-1.47-.84-1.88-4.55-2-5.29a.5.5,0,0,1,1-.09c.15,1.61.69,4.08,1.45,4.51.53.3,2.35.17,4.13-.51a3.69,3.69,0,0,0,2.12-1.47.49.49,0,0,1,.63-.32.51.51,0,0,1,.32.63c-.34,1-1.66,1.69-2.71,2.09A10.89,10.89,0,0,1,522.38,192.16Z" style="fill:#263238"></path><path d="M523.77,195.4a7.75,7.75,0,0,1-1.12-.07.5.5,0,0,1-.42-.56.51.51,0,0,1,.57-.43c.05,0,4.84.66,7.63-3a.5.5,0,0,1,.8.61A9.23,9.23,0,0,1,523.77,195.4Z" style="fill:#263238"></path><path d="M527.36,180.72a6.78,6.78,0,0,1-1.15-.09.48.48,0,0,1-.39-.58.49.49,0,0,1,.58-.4,6,6,0,0,0,5.72-2.25.49.49,0,0,1,.69-.12.5.5,0,0,1,.12.7A6.64,6.64,0,0,1,527.36,180.72Z" style="fill:#263238"></path><path d="M523.48,177a1,1,0,0,1-.68-1.73c.11-.11,2.8-2.53,8-2.53a1,1,0,0,1,0,2,10.52,10.52,0,0,0-6.68,2A1,1,0,0,1,523.48,177Z" style="fill:#263238"></path><path d="M509,180.57a1,1,0,0,1-.59-.19,1,1,0,0,1-.22-1.4c2.53-3.44,7.6-1.17,7.82-1.07a1,1,0,0,1-.83,1.82c-.07,0-3.82-1.69-5.37.43A1,1,0,0,1,509,180.57Z" style="fill:#263238"></path><path d="M512.64,184.79a3.08,3.08,0,0,1-2.14-.72.48.48,0,0,1,0-.7.49.49,0,0,1,.7,0c.07.06,1.52,1.35,4.85-.81a.5.5,0,1,1,.54.83A7.32,7.32,0,0,1,512.64,184.79Z" style="fill:#263238"></path></g><g id="freepik--character-2--inject-691"><path d="M628.57,371.67a21.19,21.19,0,0,1-11.51-4,2.28,2.28,0,1,1,2.73-3.64c.32.23,8,5.78,14.32,1.27,4.69-3.32,5.32-25.67,4.27-40.48a2.28,2.28,0,0,1,4.55-.32c.45,6.38,2.27,38.52-6.19,44.52A13.83,13.83,0,0,1,628.57,371.67Z" style="fill:#263238"></path><rect x="592.89" y="371.26" width="7.58" height="55.75" style="fill:#263238"></rect><path d="M600.47,427.51h-7.58a.5.5,0,0,1-.5-.5V371.26a.5.5,0,0,1,.5-.5h7.58a.5.5,0,0,1,.5.5V427A.5.5,0,0,1,600.47,427.51Zm-7.08-1H600V371.76h-6.58Z" style="fill:#263238"></path><rect x="562.84" y="349.54" width="67.68" height="16.35" rx="3.82" style="fill:#8c8c8c"></rect><path d="M626.7,366.39h-60a4.33,4.33,0,0,1-4.33-4.32v-8.7a4.33,4.33,0,0,1,4.33-4.33h60a4.33,4.33,0,0,1,4.32,4.33v8.7A4.33,4.33,0,0,1,626.7,366.39Zm-60-16.35a3.34,3.34,0,0,0-3.33,3.33v8.7a3.33,3.33,0,0,0,3.33,3.32h60a3.32,3.32,0,0,0,3.32-3.32v-8.7A3.33,3.33,0,0,0,626.7,350Z" style="fill:#263238"></path><path d="M636.49,273.73a32,32,0,0,0-1.48,4.15c-2.86,9.89-3.08,20.58-3.18,30.8-.05,4.07-1.11,10.65.47,14.42,2,4.7,10.83,6.86,13.28,1.56,3.08-6.68,1.22-15.55,2.7-22.75,1.65-8,6.18-17.85,4.2-25.93-1.89-7.7-8.08-13.89-14.11-5.55A18.25,18.25,0,0,0,636.49,273.73Z" style="fill:#8c8c8c"></path><path d="M640.24,328.25h-.16c-3.54-.06-7.08-2.19-8.24-5s-.93-7.25-.69-11.08c.09-1.29.17-2.5.18-3.53.09-9.19.21-20.62,3.2-30.93a32.27,32.27,0,0,1,1.5-4.22h0a20,20,0,0,1,1.93-3.4c2.9-4,5.63-4.43,7.42-4.08,3.3.64,6.29,4.49,7.59,9.81,1.45,5.94-.48,12.62-2.35,19.09-.71,2.49-1.39,4.84-1.85,7.06a51.81,51.81,0,0,0-.7,9.19c-.07,4.72-.16,9.59-2,13.67A6,6,0,0,1,640.24,328.25Zm4.14-61.3c-1.89,0-3.81,1.29-5.61,3.77a17.93,17.93,0,0,0-1.82,3.22h0a30.59,30.59,0,0,0-1.46,4.08c-3,10.19-3.07,21.54-3.16,30.67,0,1.06-.09,2.29-.18,3.58-.24,3.73-.51,8,.61,10.64,1,2.42,4.17,4.29,7.33,4.34a5.07,5.07,0,0,0,5-2.8c1.8-3.89,1.88-8.65,2-13.26a52.36,52.36,0,0,1,.72-9.38c.47-2.26,1.15-4.63,1.87-7.14,1.84-6.34,3.73-12.9,2.34-18.57-1.2-4.86-3.93-8.51-6.82-9.07A4.26,4.26,0,0,0,644.38,267Zm-7.89,6.78h0Z" style="fill:#263238"></path><rect x="582.74" y="366.05" width="27.88" height="7.58" style="fill:#263238"></rect><path d="M610.62,374.13H582.74a.5.5,0,0,1-.5-.5v-7.58a.51.51,0,0,1,.5-.5h27.88a.5.5,0,0,1,.5.5v7.58A.5.5,0,0,1,610.62,374.13Zm-27.38-1h26.88v-6.58H583.24Z" style="fill:#263238"></path><path d="M563.93,453.39a3.57,3.57,0,1,1-3.56-3.57A3.56,3.56,0,0,1,563.93,453.39Z" style="fill:#fff"></path><path d="M560.37,457.46a4.07,4.07,0,1,1,4.06-4.07A4.07,4.07,0,0,1,560.37,457.46Zm0-7.14a3.07,3.07,0,1,0,3.06,3.07A3.07,3.07,0,0,0,560.37,450.32Z" style="fill:#263238"></path><path d="M637.22,453.39a3.57,3.57,0,1,1-3.57-3.57A3.56,3.56,0,0,1,637.22,453.39Z" style="fill:#fff"></path><path d="M633.65,457.46a4.07,4.07,0,1,1,4.07-4.07A4.08,4.08,0,0,1,633.65,457.46Zm0-7.14a3.07,3.07,0,1,0,3.07,3.07A3.08,3.08,0,0,0,633.65,450.32Z" style="fill:#263238"></path><path d="M600.14,453.39a3.57,3.57,0,1,1-3.56-3.57A3.56,3.56,0,0,1,600.14,453.39Z" style="fill:#fff"></path><path d="M596.58,457.46a4.07,4.07,0,1,1,4.06-4.07A4.07,4.07,0,0,1,596.58,457.46Zm0-7.14a3.07,3.07,0,1,0,3.06,3.07A3.07,3.07,0,0,0,596.58,450.32Z" style="fill:#263238"></path><polygon points="599.09 427.01 596.68 427.1 594.28 427.01 555.07 449.17 555.07 452.42 560.37 452.42 560.37 449.6 596.68 436.84 633 449.6 633 452.42 638.3 452.42 638.3 449.17 599.09 427.01" style="fill:#263238"></polygon><path d="M638.3,452.92H633a.5.5,0,0,1-.5-.5V450l-35.82-12.59L560.87,450v2.46a.5.5,0,0,1-.5.5h-5.3a.5.5,0,0,1-.5-.5v-3.25a.5.5,0,0,1,.25-.43L594,426.57a.63.63,0,0,1,.27-.06l2.4.09,2.37-.09a.58.58,0,0,1,.26.06l39.21,22.17a.49.49,0,0,1,.26.43v3.25A.51.51,0,0,1,638.3,452.92Zm-4.8-1h4.3v-2.46L599,427.51l-2.26.09-2.3-.09-38.83,21.95v2.46h4.3V449.6a.51.51,0,0,1,.34-.47l36.31-12.77a.62.62,0,0,1,.33,0l36.31,12.77a.51.51,0,0,1,.34.47Z" style="fill:#263238"></path><polygon points="593.21 426.91 600.15 426.91 599.11 452.42 594.25 452.42 593.21 426.91" style="fill:#263238"></polygon><path d="M599.11,452.92h-4.86a.52.52,0,0,1-.5-.48l-1-25.51a.55.55,0,0,1,.14-.37.51.51,0,0,1,.36-.15h6.94a.48.48,0,0,1,.36.15.47.47,0,0,1,.14.37l-1,25.51A.5.5,0,0,1,599.11,452.92Zm-4.38-1h3.9l1-24.51h-5.9Z" style="fill:#263238"></path><path d="M556.62,195.84s-1,7.61,1.94,11.82,3.72,6.63,3.72,8.58-1.29,5.18,0,6.15,5.19,0,5.19,0,7,7.12,9.39,6.48a15.8,15.8,0,0,0,4.85-2.59s7.29,7.44,8.26,9.55,1.62,3.72,1.62,3.72l10.85-17.16a34,34,0,0,1-10.52-14.25c-3.4-9.07-3.4-21-13.77-23.64S557.75,191.46,556.62,195.84Z" style="fill:#fff"></path><path d="M591.59,240.05h0a.51.51,0,0,1-.42-.31s-.66-1.63-1.61-3.7c-.73-1.58-5.65-6.83-7.85-9.1a15.47,15.47,0,0,1-4.68,2.41c-2.47.66-8.12-4.83-9.68-6.41-1,.22-4,.81-5.33-.15-1.11-.84-.79-2.67-.47-4.44a13.1,13.1,0,0,0,.27-2.11c0-1.42-.41-3.65-3.63-8.3-3-4.32-2.07-11.85-2-12.17,0,0,0,0,0-.06,1.25-4.83,11.77-14.29,22.14-11.69,8.11,2,10.11,9.63,12,17a72.26,72.26,0,0,0,2.07,7,33.75,33.75,0,0,0,10.35,14,.49.49,0,0,1,.13.67L592,239.82A.48.48,0,0,1,591.59,240.05Zm-9.88-14.27a.51.51,0,0,1,.36.15c.3.3,7.36,7.53,8.36,9.69.53,1.15,1,2.17,1.25,2.85l10.09-16a34.34,34.34,0,0,1-10.32-14.19,71.9,71.9,0,0,1-2.11-7.06c-1.94-7.4-3.77-14.39-11.31-16.27-10.29-2.57-19.86,7-20.92,10.94-.06.53-.82,7.57,1.86,11.44s3.81,6.51,3.81,8.87a14.67,14.67,0,0,1-.28,2.29c-.25,1.4-.54,3,.08,3.46.81.6,3.35.27,4.76-.08a.47.47,0,0,1,.48.13c2.62,2.67,7.36,6.75,8.91,6.34a15.64,15.64,0,0,0,4.67-2.49A.45.45,0,0,1,581.71,225.78Z" style="fill:#263238"></path><path d="M570.1,221.76a.51.51,0,0,1-.45-.29.49.49,0,0,1,.24-.66s2.79-1.37,2.79-3.92a.5.5,0,0,1,1,0c0,3.19-3.23,4.75-3.36,4.82A.59.59,0,0,1,570.1,221.76Z" style="fill:#263238"></path><path d="M562,209a.49.49,0,0,1-.5-.47,3.29,3.29,0,0,1,4.3-3.43.48.48,0,0,1,.41.57.49.49,0,0,1-.57.41,2.81,2.81,0,0,0-2.38.44,2.75,2.75,0,0,0-.76,2,.5.5,0,0,1-.48.52Z" style="fill:#263238"></path><path d="M566.21,211.54c.61.94.7,2,.21,2.27s-1.37-.19-2-1.13-.7-2-.21-2.27S565.6,210.6,566.21,211.54Z" style="fill:#263238"></path><polygon points="581.72 226.28 586.08 222.96 586.08 230.31 581.72 226.28" style="fill:#263238"></polygon><path d="M586.08,230.81a.55.55,0,0,1-.34-.13l-4.36-4a.5.5,0,0,1,0-.76l4.37-3.32a.5.5,0,0,1,.8.4v7.35a.51.51,0,0,1-.3.46A.65.65,0,0,1,586.08,230.81Zm-3.59-4.5,3.09,2.86V224Z" style="fill:#263238"></path><path d="M515.86,343.73l-9.45,94.88s-13.39.28-19-.28-10.88-2.79-10.32.28,8.92,8.09,12,9.48,7,2.23,9.49,3.63,7.81,5.3,10,4.74,7.25-20.92,7.25-20.92L541.8,352.1l29-2.23s-43.8-11.72-48.27-12.28S515.86,343.73,515.86,343.73Z" style="fill:#fff"></path><path d="M508.18,457c-2,0-5.15-2-7.73-3.58-.8-.5-1.52-.95-2.1-1.27a30.09,30.09,0,0,0-4.94-2,44.57,44.57,0,0,1-4.51-1.66c-2.52-1.15-11.63-6.31-12.28-9.85a1.75,1.75,0,0,1,.39-1.64c.91-.9,3-.51,5.84,0,1.42.27,3,.58,4.64.74,4.91.49,16.1.33,18.47.29l9.4-94.44a.43.43,0,0,1,0-.11c.1-.29,2.42-7.07,7.23-6.47,4.45.55,46.55,11.81,48.34,12.28a.52.52,0,0,1,.37.53.51.51,0,0,1-.46.46l-28.68,2.2-25.81,83.12c-1.18,4.81-5.27,20.67-7.61,21.26A2.65,2.65,0,0,1,508.18,457Zm-29.42-19.49a1.57,1.57,0,0,0-1.05.25.85.85,0,0,0-.1.75c.49,2.73,8.43,7.63,11.71,9.12,1.36.61,2.9,1.13,4.4,1.63a31.07,31.07,0,0,1,5.12,2c.59.33,1.32.79,2.14,1.3,2.4,1.5,6,3.77,7.54,3.4,1.25-.45,4.49-10.81,6.89-20.56L541.33,352a.51.51,0,0,1,.43-.35l26.09-2c-9.77-2.6-41.64-11-45.36-11.5s-5.93,5.16-6.14,5.75l-9.44,94.82a.51.51,0,0,1-.49.45c-.13,0-13.49.27-19-.28-1.65-.17-3.29-.48-4.73-.75A24.1,24.1,0,0,0,478.76,437.52Zm27.65,1.09h0Z" style="fill:#263238"></path><path d="M501.39,446.42c-9.49-2.23-12.84-5-12.84-5l2.53-2.85c-1.38-.05-2.64-.12-3.64-.22-5.58-.56-10.88-2.79-10.32.28s8.92,8.09,12,9.48,7,2.23,9.49,3.63,7.81,5.3,10,4.74c.93-.23,2.33-3.88,3.66-8.06A94.41,94.41,0,0,1,501.39,446.42Z" style="fill:#92E3A9"></path><path d="M508.18,457c-2,0-5.15-2-7.73-3.58-.8-.5-1.52-.95-2.1-1.27a30.09,30.09,0,0,0-4.94-2,44.57,44.57,0,0,1-4.51-1.66c-2.52-1.15-11.63-6.31-12.28-9.85a1.75,1.75,0,0,1,.39-1.64c.91-.9,3-.51,5.84,0,1.42.27,3,.58,4.64.74.91.09,2.13.17,3.61.22a.51.51,0,0,1,.36.84l-2.16,2.42c1.15.78,4.79,2.88,12.2,4.62h0a94.77,94.77,0,0,0,10.86,2,.49.49,0,0,1,.36.23.48.48,0,0,1,.06.42c-2.25,7.08-3.29,8.22-4,8.4A2.65,2.65,0,0,1,508.18,457Zm-29.42-19.49a1.57,1.57,0,0,0-1.05.25.85.85,0,0,0-.1.75c.49,2.73,8.43,7.63,11.71,9.12,1.36.61,2.9,1.13,4.4,1.63a31.07,31.07,0,0,1,5.12,2c.59.33,1.33.79,2.14,1.3,2.4,1.5,6,3.77,7.54,3.4.15-.06,1-.67,3.12-7.16a97.39,97.39,0,0,1-10.37-1.91c-9.49-2.24-12.9-5-13-5.13a.54.54,0,0,1-.18-.35.53.53,0,0,1,.13-.36L490,439c-1-.05-1.9-.11-2.62-.18-1.65-.17-3.29-.48-4.73-.75A24.1,24.1,0,0,0,478.76,437.52Z" style="fill:#263238"></path><path d="M585.1,301.08l-3.68,14.47A237.88,237.88,0,0,0,545.71,320c-19,3.9-36.55,9.2-37.11,12.55s21.21,43.24,38.22,73.93c3.69,6.64,11.72,23.44,11.72,23.44s-3.07,8.37-6.14,13.11-7.81,9.21-8.92,9.77-4.47,1.95-3.35,3.34,12.55,0,13.39,0,9.77-7.81,12.28-10,12.27-9.49,12-12.28-8.93-8.92-9.48-10.88S556.59,396.74,556,394.51s-15.34-46-15.34-46,60.54,3.35,73.65,2.24,15.07-6.14,15.9-10.61-5-40.73-5-40.73l-39.06-.28Z" style="fill:#fff"></path><path d="M543.88,457.28c-2.44,0-3.71-.27-4.14-.8a1.38,1.38,0,0,1-.3-1.2c.25-1.12,1.84-2,3.44-2.73l.37-.18c1.08-.54,5.73-4.95,8.73-9.59,2.75-4.24,5.54-11.53,6-12.82-.9-1.88-8.19-17-11.61-23.21-34.91-63-38.57-72.54-38.28-74.26.67-4,20.62-9.49,37.5-13A242.07,242.07,0,0,1,581,315.07L584.62,301a.36.36,0,0,1,0-.11l1.06-2a.5.5,0,0,1,.44-.27h0l39.05.28a.49.49,0,0,1,.49.42c.24,1.49,5.87,36.41,5,40.91-.88,4.72-3,9.86-16.35,11-12.21,1.05-66-1.81-73-2.19,2,5.83,14.59,43.28,15.12,45.38.29,1.16,3.77,9,6.84,15.9,2.77,6.23,5.16,11.61,5.43,12.54.2.7,2.09,2.46,3.75,4,2.74,2.55,5.57,5.18,5.75,7,.23,2.32-4.6,6.48-10,10.9-.91.75-1.67,1.37-2.16,1.8-4.28,3.8-11.6,10.17-12.61,10.17-.15,0-.65,0-1.37.12C548.53,457.11,545.83,457.28,543.88,457.28Zm41.69-156-3.67,14.42a.49.49,0,0,1-.46.37,239.61,239.61,0,0,0-35.63,4.46c-20.48,4.21-36.26,9.43-36.71,12.14-.28,1.68,6.11,15.81,38.16,73.61,3.65,6.57,11.65,23.29,11.73,23.46a.48.48,0,0,1,0,.39c-.12.34-3.12,8.48-6.19,13.21s-7.94,9.35-9.12,9.94l-.39.19c-.82.39-2.73,1.31-2.9,2.05a.38.38,0,0,0,.11.35c.35.42,2.63.75,11.53-.07.87-.08,1.3-.12,1.47-.12.82-.26,7.49-6,11.94-9.91.5-.44,1.27-1.08,2.2-1.83,3.19-2.61,9.83-8.05,9.64-10-.15-1.4-3.08-4.13-5.44-6.32s-3.77-3.54-4-4.47-2.86-6.73-5.38-12.41c-3.24-7.28-6.59-14.81-6.9-16.06-.55-2.19-15.19-45.56-15.34-46a.51.51,0,0,1,.08-.46.48.48,0,0,1,.42-.2c.61,0,60.66,3.34,73.59,2.24,12.7-1.08,14.63-5.83,15.45-10.2.76-4.07-4.31-36.09-5-40.14l-38.33-.28Zm-4.15,14.29h0Z" style="fill:#263238"></path><path d="M540.69,349a.69.69,0,0,1-.2,0l-13.39-5.58a.5.5,0,0,1,.39-.93L540.88,348a.52.52,0,0,1,.27.66A.5.5,0,0,1,540.69,349Z" style="fill:#263238"></path><path d="M577.79,433.84c-.13-1.37-2.29-3.54-4.51-5.63-.9,1.14-1.93,2.41-3,3.68-3.35,3.91-17.58,17.86-17.58,17.86l-4.54-1.24a26.91,26.91,0,0,1-4.66,4.31c-1.12.55-4.47,1.95-3.35,3.34s12.55,0,13.39,0,9.77-7.81,12.28-10S578.07,436.63,577.79,433.84Z" style="fill:#92E3A9"></path><path d="M543.88,457.28c-2.44,0-3.71-.27-4.14-.8a1.38,1.38,0,0,1-.3-1.2c.25-1.12,1.84-2,3.44-2.73l.37-.18a26.63,26.63,0,0,0,4.52-4.2.49.49,0,0,1,.5-.15l4.27,1.17c1.76-1.73,14.26-14,17.34-17.62,1-1.12,2-2.36,3-3.67a.48.48,0,0,1,.35-.19.52.52,0,0,1,.38.13c2.78,2.62,4.53,4.52,4.67,6,.23,2.32-4.6,6.48-10,10.9-.91.75-1.67,1.37-2.16,1.8-4.28,3.8-11.6,10.17-12.61,10.17-.15,0-.65,0-1.37.12C548.53,457.11,545.83,457.28,543.88,457.28Zm4.42-8.21a25.36,25.36,0,0,1-4.6,4.19l-.39.19c-.82.39-2.73,1.31-2.9,2.05a.38.38,0,0,0,.11.35c.35.42,2.63.75,11.53-.07.87-.08,1.3-.12,1.47-.12.82-.26,7.49-6,11.94-9.91.5-.44,1.27-1.08,2.2-1.83,3.19-2.61,9.83-8.05,9.64-10h0c-.13-1.22-2.51-3.56-4-4.94-.92,1.16-1.83,2.26-2.69,3.27-3.32,3.87-17,17.31-17.61,17.88a.5.5,0,0,1-.48.13Z" style="fill:#263238"></path><path d="M586.16,299.09l-1.06,2-3.68,14.47A237.88,237.88,0,0,0,545.71,320c-5.69,1.17-11.25,2.46-16.27,3.8l13,24.75c9.92.53,60.14,3.14,71.94,2.14,13.11-1.12,15.07-6.14,15.9-10.61s-5-40.73-5-40.73Z" style="fill:#92E3A9"></path><path d="M606.16,351.43c-18.53,0-55.41-1.92-63.79-2.36a.49.49,0,0,1-.41-.27l-13-24.75a.47.47,0,0,1,0-.43.5.5,0,0,1,.33-.29c5-1.32,10.6-2.63,16.29-3.8A242.07,242.07,0,0,1,581,315.07L584.62,301a.36.36,0,0,1,0-.11l1.06-2a.5.5,0,0,1,.44-.27h0l39.05.28a.49.49,0,0,1,.49.42c.24,1.49,5.87,36.41,5,40.91-.88,4.72-3,9.86-16.35,11C612.51,351.36,609.66,351.43,606.16,351.43Zm-63.45-3.35c10.58.57,60,3.12,71.59,2.13,12.7-1.08,14.63-5.83,15.45-10.2.76-4.07-4.31-36.09-5-40.14l-38.33-.28-.89,1.67-3.67,14.42a.49.49,0,0,1-.46.37,239.61,239.61,0,0,0-35.63,4.46c-5.44,1.12-10.83,2.37-15.63,3.63Zm38.71-32.53h0Z" style="fill:#263238"></path><path d="M613.5,327.77a.49.49,0,0,1-.32-.12c-8.71-7.35-28.29-10.18-28.48-10.21a.5.5,0,0,1-.43-.56.51.51,0,0,1,.57-.43c.81.12,20,2.9,29,10.44a.49.49,0,0,1,0,.7A.48.48,0,0,1,613.5,327.77Z" style="fill:#263238"></path><path d="M608.2,320.79a.52.52,0,0,1-.29-.09c-3.76-2.68-16.11-4.36-16.23-4.37a.5.5,0,0,1-.43-.57.48.48,0,0,1,.56-.42c.52.06,12.72,1.72,16.68,4.55a.5.5,0,0,1,.12.7A.51.51,0,0,1,608.2,320.79Z" style="fill:#263238"></path><path d="M534.67,274.52s-4.36-.38-6.45,1-12.12,8.15-14.78,10.42a26.6,26.6,0,0,0-5.31,6.82c-.18.57,1.14.76,1.71.57s3-2.08,2.27-1.13.58,1.17.58,1.17,14-8.19,15.16-8a8.15,8.15,0,0,0,4.92-1.7,59.68,59.68,0,0,1,5.5-3.22L583,289.11l6.82-6.25-1.51-15.16-10,8.34Z" style="fill:#fff"></path><path d="M509.29,293.85a2.09,2.09,0,0,1-1.42-.45.79.79,0,0,1-.21-.84,26.14,26.14,0,0,1,5.46-7.05c2.66-2.28,12.71-9.11,14.84-10.46s6.42-1.06,6.74-1l43.39,1.51,9.9-8.22a.52.52,0,0,1,.51-.08.48.48,0,0,1,.3.42l1.52,15.16a.48.48,0,0,1-.16.42l-6.82,6.25a.5.5,0,0,1-.44.12l-44.55-8.68a53.81,53.81,0,0,0-5.28,3.1c-1.61,1.21-4,2-5.31,1.8-.88.05-8.3,4.13-14.82,7.94a.48.48,0,0,1-.33.06,1.56,1.56,0,0,1-1.17-.81.29.29,0,0,1,0-.09l-.09.06a8.55,8.55,0,0,1-1.33.78A2.45,2.45,0,0,1,509.29,293.85Zm-.63-1.1a1.94,1.94,0,0,0,1,.06,8.75,8.75,0,0,0,1.1-.67c1.15-.75,1.49-1,1.84-.59s0,.77-.11.91a.53.53,0,0,0-.13.22.92.92,0,0,0,.24.11c4.28-2.5,13.8-8,15.24-8h.07a7.76,7.76,0,0,0,4.54-1.61A60.6,60.6,0,0,1,538,280a.53.53,0,0,1,.33-.05l44.48,8.67,6.45-5.91-1.4-14-9.32,7.74a.58.58,0,0,1-.34.12L534.65,275h0s-4.22-.35-6.14.87c-2.12,1.35-12.09,8.12-14.72,10.38A26.83,26.83,0,0,0,508.66,292.75Z" style="fill:#263238"></path><path d="M597.35,225.17S589,242.06,584.86,255s-2,15.92-1,16.66,3.18,2.44,3.18,2.44-3.67,25-2,26.94,15.92,2.7,27.43,2.7,14.2-4.66,14.2-7.1-5.14-41.88-9.06-54.62S603.22,221,597.35,225.17Z" style="fill:#fff"></path><path d="M612.53,304.28c-4.23,0-25.42-.14-27.8-2.87-1.74-2,1.09-22.25,1.79-27.05-.59-.46-2.16-1.68-2.94-2.27-1.74-1.3-3-5.34.8-17.2,4.13-12.87,12.43-29.78,12.52-29.95a.46.46,0,0,1,.16-.18,7.15,7.15,0,0,1,6.69-.66c5.87,2,11.79,9.32,14.4,17.82,3.85,12.52,9.08,51.81,9.08,54.76S624.14,304.28,612.53,304.28ZM597.74,225.5C597,227,589.26,243,585.33,255.2c-4.07,12.69-1.91,15.53-1.15,16.09,1,.74,3.19,2.46,3.19,2.46a.52.52,0,0,1,.19.47c-1.79,12.16-3.06,25.42-2.08,26.53,1.28,1.47,12.65,2.53,27,2.53,10.82,0,13.7-4.15,13.7-6.6,0-2.12-5-41.44-9-54.47C614.67,234,609,227,603.43,225.05A6.24,6.24,0,0,0,597.74,225.5Z" style="fill:#263238"></path><path d="M596.87,244.53l-5.23,36.79s-54.13-2.93-55.11-2.93-11.75,4.89-16.16,7.34-7.35,4.17-8.08,5.88l-.74,1.71a17.34,17.34,0,0,0,6.62,0,28.19,28.19,0,0,0,5.63-1.95s6.37-.74,8.57-2.21,7.1-5.63,7.1-5.63,42.61,11.51,47,12.24,14.94,5.15,17.39,2.7c2-2,8.15-37.69,10.14-49.57a10.5,10.5,0,0,0-2.07-8.26c-1.48-1.87-3.5-3.57-5.87-3.89C598.88,235.8,596.87,244.53,596.87,244.53Z" style="fill:#fff"></path><path d="M601.33,299.69c-2.66,0-6.4-1.09-9.84-2.1a51.92,51.92,0,0,0-5.08-1.32c-4.25-.71-42.95-11.15-46.81-12.19-1,.81-5,4.18-7,5.5-2.16,1.44-7.9,2.17-8.71,2.27a28.3,28.3,0,0,1-5.66,2,17.79,17.79,0,0,1-6.83,0,.47.47,0,0,1-.34-.26.51.51,0,0,1,0-.42l.74-1.72c.79-1.84,3.66-3.54,8.3-6.12,3.87-2.14,15.19-7.4,16.4-7.4,1,0,49.07,2.61,54.68,2.91l5.16-36.34s0,0,0,0,2.22-9.17,9.77-8.16c2.74.36,4.88,2.41,6.19,4.07a11,11,0,0,1,2.17,8.65c-3,17.75-8.25,47.82-10.28,49.84A4,4,0,0,1,601.33,299.69ZM539.47,283a.27.27,0,0,1,.13,0c.43.11,42.64,11.51,47,12.23a51.39,51.39,0,0,1,5.19,1.35c4.33,1.27,10.24,3,11.76,1.48,1.29-1.29,5.12-20.18,10-49.29a10,10,0,0,0-2-7.87c-1.19-1.51-3.12-3.38-5.53-3.7-6.58-.87-8.53,6.82-8.66,7.37l-5.23,36.77a.49.49,0,0,1-.52.43c-18.71-1-54.31-2.93-55.08-2.93-1,.07-11.43,4.79-15.92,7.28-4.32,2.4-7.2,4.09-7.86,5.64l-.49,1.13a16.44,16.44,0,0,0,5.79-.1,28.12,28.12,0,0,0,5.53-1.92.43.43,0,0,1,.16-.05c.06,0,6.28-.74,8.35-2.12s7-5.56,7.06-5.6A.49.49,0,0,1,539.47,283Z" style="fill:#263238"></path><path d="M518.17,293.82a.49.49,0,0,1-.5-.47,3,3,0,0,1,1.21-2.61c1-.6,6.3-3,6.81-3.18a.51.51,0,0,1,.63.32.5.5,0,0,1-.32.63c-.38.13-5.57,2.49-6.63,3.1-.76.43-.7,1.68-.7,1.69a.5.5,0,0,1-.48.52Z" style="fill:#263238"></path><path d="M515.24,294.21a.39.39,0,0,1-.15,0,.49.49,0,0,1-.32-.63c.18-.59.84-2.58,1.52-3.08s6.27-3.7,6.92-4.07a.5.5,0,0,1,.49.87c-2.51,1.43-6.39,3.68-6.81,4a8.43,8.43,0,0,0-1.17,2.58A.49.49,0,0,1,515.24,294.21Z" style="fill:#263238"></path><path d="M566.9,176.88s-18.66,10.26-18.35,16.17,25.51,9.64,27.68,9.64,2.49-5.59,5.29-4,3.42,5.29,3.11,6.84a33.74,33.74,0,0,1-.93,3.42s6.22,18,12.44,21.15,14.47,5.69,20.06-1.47,4.17-15.67.77-19.36c-4.7-5.13-15.55-5-18.35-11.51s-1.86-16.49-8.08-22.71S566.9,176.88,566.9,176.88Z" style="fill:#263238"></path><path d="M607,233.68c-3.19,0-6.88-1.06-11.1-3.17-6.33-3.16-12.43-20.69-12.69-21.43a.58.58,0,0,1,0-.32,32.61,32.61,0,0,0,.92-3.36c.25-1.25-.22-4.84-2.86-6.31-1-.58-1.55.08-2.47,1.72-.66,1.17-1.34,2.38-2.58,2.38-1.42,0-27.83-3.52-28.18-10.11-.32-6.15,17.84-16.21,18.61-16.64h0c.73-.34,17.81-8.16,24.2-1.77,4.11,4.11,5.15,9.63,6.16,15a38.64,38.64,0,0,0,2,7.89c1.49,3.47,5.4,5,9.54,6.53,3.23,1.23,6.58,2.5,8.72,4.84,3.25,3.53,5.26,12.34-.74,20A11.61,11.61,0,0,1,607,233.68Zm-22.79-24.77c.63,1.77,6.47,17.87,12.14,20.71,9,4.51,15.21,4.09,19.45-1.33,5.65-7.22,3.81-15.44.8-18.73-2-2.16-5.22-3.39-8.35-4.57-4.15-1.58-8.44-3.21-10.1-7.07a40.17,40.17,0,0,1-2.1-8.11c-1-5.19-2-10.56-5.88-14.44-5.82-5.83-22.46,1.69-23,2-5.13,2.82-18.32,11.11-18.08,15.7.28,5.21,24.08,9.16,27.18,9.16.66,0,1.19-.95,1.71-1.87.76-1.36,1.8-3.23,3.82-2.11,3,1.69,3.7,5.71,3.36,7.38A32.38,32.38,0,0,1,584.22,208.91Z" style="fill:#263238"></path><path d="M469.5,296.73H447.22a3.89,3.89,0,0,1-3.41-5.78l24.48-44.37a1.39,1.39,0,0,1,2.43,1.35l-24.48,44.36a1.12,1.12,0,0,0,1,1.66H469.5a1.39,1.39,0,0,1,0,2.78Z" style="fill:#263238"></path><rect x="469.5" y="205.8" width="4.97" height="82.24" transform="translate(-38.34 94.25) rotate(-10.96)" style="fill:#fff"></rect><path d="M477.37,288.27a.49.49,0,0,1-.49-.41l-15.64-80.74a.47.47,0,0,1,.08-.38.49.49,0,0,1,.31-.21l4.89-.94a.5.5,0,0,1,.58.39l15.64,80.75a.48.48,0,0,1-.07.37.49.49,0,0,1-.32.21l-4.89.95Zm-15.05-80.85,15.44,79.76,3.91-.75-15.45-79.77Z" style="fill:#263238"></path><polygon points="538.74 294.89 498.72 293.75 498.72 296.41 538.74 296.41 538.74 294.89" style="fill:#fff"></polygon><path d="M538.74,296.91h-40a.5.5,0,0,1-.5-.5v-2.66a.48.48,0,0,1,.15-.36.5.5,0,0,1,.36-.14l40,1.14a.5.5,0,0,1,.49.5v1.52A.5.5,0,0,1,538.74,296.91Zm-39.52-1h39v-.54l-39-1.11Z" style="fill:#263238"></path><polygon points="423.61 457.54 417.09 457.54 415.69 305.86 425 305.86 423.61 457.54" style="fill:#fff"></polygon><path d="M423.6,458h-6.51a.5.5,0,0,1-.5-.5l-1.4-151.67a.54.54,0,0,1,.14-.36.55.55,0,0,1,.36-.15H425a.55.55,0,0,1,.36.15.54.54,0,0,1,.14.36l-1.4,151.67A.5.5,0,0,1,423.6,458Zm-6-1h5.53l1.39-150.68h-8.31Z" style="fill:#263238"></path><polygon points="543.04 457.54 536.52 457.54 535.13 305.86 544.44 305.86 543.04 457.54" style="fill:#fff"></polygon><path d="M543,458h-6.52a.5.5,0,0,1-.5-.5l-1.39-151.67a.5.5,0,0,1,.14-.36.51.51,0,0,1,.36-.15h9.31a.51.51,0,0,1,.5.51l-1.4,151.67A.5.5,0,0,1,543,458Zm-6-1h5.53l1.38-150.68h-8.3Z" style="fill:#263238"></path><rect x="406.47" y="296.65" width="148.29" height="10" style="fill:#263238"></rect><path d="M554.77,307.15H406.47a.5.5,0,0,1-.5-.5v-10a.5.5,0,0,1,.5-.5h148.3a.5.5,0,0,1,.5.5v10A.5.5,0,0,1,554.77,307.15Zm-147.8-1h147.3v-9H407Z" style="fill:#263238"></path></g><g id="freepik--character-1--inject-691"><path d="M333.63,246.15l-8.08,113L323.37,428s-3.42.62-3.42,2.8.31,5.91.31,8.71-5,16.79-5,16.79h23s-.31-8.08,0-13.06.31-7.46.93-8.71,2.18-4.35,2.18-7.15.62-9,.93-12.13,21.15-107.16,21.15-107.16,4.36,57.22,5.29,65.62.31,21.84.62,31.17,6.22,37,6.22,37-1.24,13.06-1.24,14.61h42s1.56-2.17,0-2.8-4.66-1.24-5.6-1.55-16.48-12.44-16.48-12.44.31-5.91,0-6.84-3.11-4.36-3.11-7.47,4-33.65,4-49.51V341.71c0-6.53.63-72.15.63-72.15l-.63-25.19Z" style="fill:#263238"></path><path d="M416.36,457h-42a.5.5,0,0,1-.5-.5c0-1.51,1.12-13.41,1.24-14.58-.35-1.62-5.92-28-6.22-37-.12-3.5-.1-7.5-.09-11.73a190.28,190.28,0,0,0-.53-19.4c-.78-7.07-4-49.3-5-62-3.66,18.3-20.16,100.83-20.43,103.56-.3,3-.93,9.31-.93,12.08s-1.56,6-2.23,7.37c-.45.91-.55,2.76-.72,5.82,0,.81-.1,1.7-.16,2.7-.31,4.89,0,12.93,0,13a.55.55,0,0,1-.14.37.48.48,0,0,1-.36.15h-23a.49.49,0,0,1-.41-.21.5.5,0,0,1-.07-.46c1.72-4.81,4.95-14.48,4.95-16.62,0-1.48-.08-3.2-.17-4.86-.07-1.45-.14-2.82-.14-3.85,0-2.09,2.45-2.94,3.43-3.2l2.17-68.52,8.08-113a.51.51,0,0,1,.48-.47l61.59-1.78a.46.46,0,0,1,.36.14.49.49,0,0,1,.15.35l.63,25.19c0,.67-.63,65.71-.63,72.16v34.21c0,11-2,29.27-3.13,40.18-.53,4.88-.91,8.41-.91,9.34,0,2.13,1.47,4.53,2.35,6a9.11,9.11,0,0,1,.74,1.35c.3.9.1,5.35,0,6.76,6.13,4.78,15.34,11.86,16.15,12.21.31.1.94.26,1.68.44a35.54,35.54,0,0,1,3.93,1.12,1.49,1.49,0,0,1,.94,1,3.58,3.58,0,0,1-.72,2.57A.51.51,0,0,1,416.36,457Zm-41.46-1h41.19a2.36,2.36,0,0,0,.44-1.5.51.51,0,0,0-.35-.33,33.53,33.53,0,0,0-3.8-1.08c-.76-.18-1.41-.35-1.77-.47-.94-.31-13-9.66-16.64-12.52a.49.49,0,0,1-.19-.42,45.49,45.49,0,0,0,0-6.66,10.71,10.71,0,0,0-.65-1.14c-.93-1.52-2.49-4.07-2.49-6.48,0-1,.38-4.53.91-9.45,1.17-10.88,3.13-29.1,3.13-40.07V341.71c0-6.45.62-71.5.63-72.15l-.61-24.68-60.64,1.76-8,112.53-2.18,68.89a.5.5,0,0,1-.41.47s-3,.58-3,2.31c0,1,.07,2.37.14,3.8.08,1.68.17,3.41.17,4.91,0,2.53-3.77,13.44-4.77,16.29h21.79c-.06-1.87-.24-8.37,0-12.59.06-1,.11-1.89.16-2.7.18-3.3.28-5.11.83-6.2s2.12-4.25,2.12-6.93c0-2.83.63-9.14.93-12.18S362.15,312.28,363,308a.48.48,0,0,1,.52-.4.5.5,0,0,1,.47.46c0,.57,4.36,57.31,5.29,65.6a192.89,192.89,0,0,1,.53,19.51c0,4.23,0,8.22.09,11.7.31,9.18,6.15,36.64,6.21,36.92a.76.76,0,0,1,0,.15C376.11,442.09,375.05,453.22,374.9,456Zm-51.53-28h0Z" style="fill:#263238"></path><path d="M330.56,243.91s.25,7,1.81,8.27,24.58,3.88,40.36,3.37,22.07-3.72,23.11-6.83-1-8.08-1-8.08l-62.24-1.14A9.1,9.1,0,0,0,330.56,243.91Z" style="fill:#92E3A9"></path><path d="M368.41,256.11c-15.15,0-34.74-2.19-36.36-3.54s-2-7.91-2-8.64a.4.4,0,0,1,0-.11,9.48,9.48,0,0,1,2.2-4.67.51.51,0,0,1,.36-.15l62.24,1.14a.52.52,0,0,1,.46.32c.08.21,2.06,5.18,1,8.42-1.37,4.11-10,6.72-23.56,7.17C371.36,256.09,369.91,256.11,368.41,256.11ZM331.07,244c.1,2.62.62,7,1.62,7.85,1.3,1.07,23.79,3.78,40,3.25,19.21-.63,22.19-5.12,22.64-6.48.82-2.47-.44-6.33-.85-7.43L332.85,240A8.79,8.79,0,0,0,331.07,244Z" style="fill:#263238"></path><path d="M355.67,138.17s-24.7,9-27.35,10.21-4.9,2.45-5.31,3.88-13.67,34.29-13.67,34.29L281.17,159s-3.27-3.26-5.11-4.69-5.1-1.23-7.34-1.63-3.88-3.88-4.7-1.84-.61,3.06.2,3.67a13.94,13.94,0,0,1,1.84,1.84,40.65,40.65,0,0,1-5.71-1.84c-1.64-.81-3.68-6.12-4.7-3.47s5.1,9.19,6.74,10.62,2.65,1.22,5.92,1.63,8.37.61,8.37.61,26.12,47.36,28.16,48.79,3.27,2.86,4.9,2.24,18.17-18,18.17-18,2,44.7,2.65,46.95,2.25,2,3.07,2.24,22.65,2.45,31.84,2.45,22.45-1.83,25.11-2.85,4.28-2.05,4.28-5.11S396.29,210,396.29,210s12.66,11,15.72,11.23a6,6,0,0,0,6.12-3.27c1-2,15.52-51.84,15.52-51.84s7.14-5.92,7.14-6.53,1-17.35-1-16.74-6.94,2.24-6.94,2.24,2-3.67.61-6.94-4.08-4.28-4.08-2.24a64.4,64.4,0,0,1-.41,9c-.41,1.84-2,6.33-1.84,9.59s.21,4.08.21,5.31-18.17,31.64-18.17,31.64-11.23-36.34-12.45-38.17-20.62-11.43-20.62-11.43Z" style="fill:#fff"></path><path d="M365.47,249.1c-9,0-31.06-2.24-32-2.46l-.43-.07a3.13,3.13,0,0,1-3-2.53c-.57-2.09-2.28-38.68-2.62-45.89-4,4.18-16,16.67-17.54,17.24s-2.77-.35-4.19-1.44c-.36-.27-.75-.57-1.17-.86-2.05-1.43-24.93-42.82-28.19-48.71-1.12,0-5.32-.25-8.13-.6l-1.67-.19c-2.05-.21-3.08-.31-4.51-1.57-.09-.07-8.2-7.72-6.88-11.17.25-.64.6-1,1.06-1,.89-.11,1.67,1,2.58,2.26a7.55,7.55,0,0,0,1.75,2,26.91,26.91,0,0,0,3.94,1.34c-.2-.18-.4-.36-.59-.5-1.41-1.06-.93-2.83-.36-4.26a1.34,1.34,0,0,1,.89-.92c.68-.16,1.32.39,2.06,1a5.44,5.44,0,0,0,2.29,1.42c.62.12,1.33.18,2.08.25,1.9.18,4.06.37,5.49,1.48,1.84,1.43,5,4.61,5.15,4.74l27.63,27c4.65-11.53,13.07-32.46,13.38-33.55.44-1.55,2.55-2.8,5.58-4.2,2.64-1.21,26.38-9.85,27.39-10.22a.46.46,0,0,1,.26,0l20.41,3.67.14.05c2,1,19.54,9.71,20.81,11.6,1.15,1.73,10.08,30.47,12.18,37.23,7.1-11.91,17.24-29.2,17.52-30.47,0-1.17,0-2-.2-5.23-.16-2.56.77-5.85,1.39-8,.19-.68.36-1.27.45-1.7a64.67,64.67,0,0,0,.4-8.87,1.4,1.4,0,0,1,1-1.53c1.26-.26,3,1.31,4,3.57a8.49,8.49,0,0,1-.15,6.31c1.57-.52,4.44-1.46,5.88-1.89a.85.85,0,0,1,.78.15c.75.59,1.54,3,.91,16.39,0,.37,0,.61,0,.68,0,.25,0,.84-7.21,6.81-1,3.54-14.49,49.77-15.5,51.79a6.5,6.5,0,0,1-6.6,3.54c-2.8-.19-12.27-8.14-15.24-10.68-.26,5-1.38,26.89-1.38,29.57,0,3.51-2.08,4.6-4.6,5.57C387.93,247.3,374.63,249.1,365.47,249.1Zm-37.56-52.64a.57.57,0,0,1,.18,0,.52.52,0,0,1,.32.45c.71,15.44,2.16,45.1,2.64,46.84a2.17,2.17,0,0,0,2.17,1.8,3.42,3.42,0,0,1,.53.09c.88.2,22.65,2.43,31.72,2.43,9.44,0,22.51-1.89,24.93-2.82,2.74-1.06,4-2,4-4.64,0-3,1.37-29.52,1.43-30.64a.52.52,0,0,1,.31-.44.5.5,0,0,1,.52.09c5,4.38,13.3,11,15.42,11.1a5.49,5.49,0,0,0,5.65-3c.79-1.58,10.47-34.55,15.48-51.76a.45.45,0,0,1,.16-.25,74.54,74.54,0,0,0,7-6.24c0-.12,0-.34,0-.63.61-13.11-.22-15.18-.48-15.51-2.06.62-6.8,2.2-6.85,2.22a.5.5,0,0,1-.54-.16.48.48,0,0,1-.06-.56s1.9-3.5.59-6.5c-1-2.19-2.37-3.1-2.9-3-.18,0-.22.32-.22.55a64,64,0,0,1-.42,9.09c-.1.45-.27,1-.47,1.76-.6,2.11-1.51,5.3-1.36,7.69.21,3.28.21,4.1.21,5.34s-12.76,22.71-18.24,31.9a.5.5,0,0,1-.49.24.52.52,0,0,1-.42-.35c-4.5-14.58-11.52-36.74-12.39-38s-12.9-7.54-20.35-11.23l-20.21-3.64c-1.92.7-24.68,9-27.19,10.14s-4.68,2.31-5,3.56c-.41,1.44-13.15,33-13.69,34.35a.52.52,0,0,1-.36.3.49.49,0,0,1-.45-.13l-28.17-27.56s-3.27-3.26-5.06-4.66c-1.2-.93-3.12-1.1-5-1.27-.77-.07-1.5-.14-2.16-.26a6.27,6.27,0,0,1-2.77-1.65c-.37-.32-1-.86-1.18-.82,0,0-.08,0-.2.32-.82,2.08-.44,2.73,0,3.09a15,15,0,0,1,1.93,1.92.5.5,0,0,1,0,.58.47.47,0,0,1-.54.22,40.75,40.75,0,0,1-5.82-1.87,7.42,7.42,0,0,1-2.11-2.31c-.47-.65-1.33-1.81-1.65-1.84,0,0-.1,0-.24.41-.8,2.08,4.32,8.07,6.6,10.06,1.19,1,2,1.13,3.95,1.33.5.05,1.05.1,1.7.18,3.21.4,8.28.61,8.33.61a.5.5,0,0,1,.41.26c10.44,18.91,26.51,47.47,28,48.62.44.3.83.61,1.2.89,1.45,1.1,2.25,1.67,3.24,1.29,1.15-.46,11.64-11.18,18-17.83A.48.48,0,0,1,327.91,196.46Z" style="fill:#263238"></path><path d="M433.79,153.62a.65.65,0,0,1-.19,0,.52.52,0,0,1-.27-.66c1.65-3.91-.88-7.48-.9-7.51a.49.49,0,0,1,.11-.7.5.5,0,0,1,.69.11,9.21,9.21,0,0,1,1,8.49A.52.52,0,0,1,433.79,153.62Z" style="fill:#263238"></path><path d="M442.42,141s-4.9,2-5.1,2.86-.61,2.86,1.23,2.86,5.46-1.42,6.15-2.74C445.72,142.07,444.26,140.62,442.42,141Z" style="fill:#fff"></path><path d="M438.55,147.25a1.8,1.8,0,0,1-1.5-.65,3.24,3.24,0,0,1-.21-2.83c.21-.88,3.05-2.23,5.39-3.2l.09,0a2.67,2.67,0,0,1,2.76.86,2.57,2.57,0,0,1,.06,2.85C444.31,145.84,440.44,147.25,438.55,147.25Zm4-5.74c-2.12.89-4.53,2.11-4.78,2.54-.3,1.24-.1,1.75,0,1.93s.21.27.72.27c1.7,0,5.12-1.35,5.71-2.47a1.62,1.62,0,0,0,0-1.77A1.67,1.67,0,0,0,442.57,141.51Z" style="fill:#263238"></path><path d="M442.11,146.92s-4.9,2-5.1,2.86-.62,2.86,1.22,2.86,5.47-1.42,6.16-2.74C445.41,148,444,146.51,442.11,146.92Z" style="fill:#fff"></path><path d="M438.23,153.14a1.81,1.81,0,0,1-1.5-.65,3.27,3.27,0,0,1-.21-2.83c.22-.88,3.06-2.23,5.4-3.2l.08,0a2.69,2.69,0,0,1,2.77.86,2.59,2.59,0,0,1,.06,2.85C444,151.73,440.13,153.14,438.23,153.14Zm4-5.74c-2.12.89-4.54,2.11-4.78,2.54-.31,1.24-.11,1.75,0,1.93s.2.27.71.27c1.71,0,5.13-1.35,5.71-2.47a1.62,1.62,0,0,0,0-1.77A1.66,1.66,0,0,0,442.26,147.4Z" style="fill:#263238"></path><path d="M441.64,151.55s-4.9,2-5.1,2.86-.62,2.86,1.22,2.86,5.47-1.41,6.16-2.73C444.94,152.59,443.48,151.15,441.64,151.55Z" style="fill:#fff"></path><path d="M437.76,157.77a1.78,1.78,0,0,1-1.5-.65,3.23,3.23,0,0,1-.21-2.83c.22-.88,3.06-2.22,5.4-3.2l.08,0a2.72,2.72,0,0,1,2.77.86,2.59,2.59,0,0,1,.06,2.85C443.52,156.37,439.65,157.77,437.76,157.77Zm4-5.74c-2.12.89-4.54,2.11-4.78,2.54-.31,1.24-.11,1.75,0,1.94s.2.26.71.26c1.71,0,5.13-1.35,5.71-2.47a1.62,1.62,0,0,0,0-1.77A1.68,1.68,0,0,0,441.79,152Z" style="fill:#263238"></path><path d="M441.39,156.68s-3.57,1.49-3.72,2.08-.44,2.09.89,2.09,4-1,4.49-2A1.43,1.43,0,0,0,441.39,156.68Z" style="fill:#fff"></path><path d="M438.56,161.35a1.41,1.41,0,0,1-1.19-.53,2.48,2.48,0,0,1-.18-2.18c.05-.2.21-.84,4-2.42l.08,0a2.1,2.1,0,0,1,2.16.68,2,2,0,0,1,.06,2.22C442.87,160.29,440,161.35,438.56,161.35Zm3-4.19a15,15,0,0,0-3.41,1.79c-.2.84-.05,1.16,0,1.26s.11.14.41.14c1.3,0,3.68-1,4.05-1.73a1,1,0,0,0,0-1.15A1.11,1.11,0,0,0,441.54,157.16Z" style="fill:#263238"></path><path d="M426.18,191.61l-11.35-9.73c-3.16,5.35-5.68,9.57-5.68,9.57s-11.23-36.34-12.45-38.17-20.62-11.43-20.62-11.43l-20.41-3.68s-24.7,9-27.35,10.21-4.9,2.45-5.31,3.88-13.67,34.29-13.67,34.29L301.65,179l-10,11.71c6.22,11,12.22,21.28,13.15,21.94,2.05,1.43,3.27,2.86,4.9,2.24s18.17-18,18.17-18,2,44.7,2.65,46.95,2.25,2,3.07,2.24,22.65,2.45,31.84,2.45,24.91-3.21,27.57-4.23,4.28-2,4.28-5.1-1-29.25-1-29.25,12.66,11,15.72,11.23a6,6,0,0,0,6.12-3.27C418.64,217,422.46,204.22,426.18,191.61Z" style="fill:#92E3A9"></path><path d="M365.47,249.1c-9,0-31.06-2.24-32-2.46l-.43-.07a3.13,3.13,0,0,1-3-2.53c-.57-2.09-2.28-38.68-2.62-45.89-4,4.18-16,16.67-17.54,17.24s-2.78-.35-4.19-1.44c-.36-.27-.75-.57-1.17-.86s-1.28-.9-13.31-22.11a.52.52,0,0,1,.05-.57l10-11.7a.5.5,0,0,1,.36-.18.51.51,0,0,1,.37.15l7.15,7c4.65-11.53,13.07-32.46,13.38-33.55.44-1.55,2.55-2.8,5.58-4.2,2.64-1.21,26.38-9.85,27.39-10.22a.46.46,0,0,1,.26,0l20.41,3.67.14.05c2,1,19.54,9.71,20.81,11.6,1.15,1.73,10.08,30.46,12.18,37.23.92-1.54,2.84-4.78,5.1-8.6a.47.47,0,0,1,.35-.24.46.46,0,0,1,.4.11l11.36,9.73a.53.53,0,0,1,.15.52c-4.93,16.69-7.65,25.59-8.08,26.46a6.5,6.5,0,0,1-6.6,3.54c-2.77-.19-12.07-8-15.14-10.6.2,5.15,1,25.41,1,28.12,0,3.51-2.08,4.6-4.6,5.57C390.5,245.88,374.63,249.1,365.47,249.1Zm-37.56-52.64a.57.57,0,0,1,.18,0,.52.52,0,0,1,.32.45c.71,15.44,2.16,45.1,2.64,46.84a2.17,2.17,0,0,0,2.17,1.8,3.42,3.42,0,0,1,.53.09c.88.2,22.65,2.43,31.72,2.43s24.71-3.17,27.39-4.2,4-2,4-4.63c0-3-1-29-1-29.23a.5.5,0,0,1,.29-.47.51.51,0,0,1,.54.08c5,4.38,13.3,11,15.42,11.1a5.49,5.49,0,0,0,5.65-3c.22-.46,1.56-4.45,7.92-26L415,182.65c-3,5.11-5.38,9.06-5.38,9.06a.5.5,0,0,1-.91-.11c-4.5-14.58-11.52-36.74-12.39-38s-12.9-7.54-20.35-11.23l-20.21-3.64c-1.92.7-24.68,9-27.19,10.14s-4.68,2.31-5,3.56c-.41,1.44-13.15,33-13.69,34.35a.52.52,0,0,1-.36.3.49.49,0,0,1-.45-.13l-7.3-7.14-9.4,11c10.16,17.91,12.41,21.15,12.84,21.48s.83.61,1.21.89c1.44,1.11,2.24,1.67,3.23,1.29,1.15-.46,11.64-11.18,18-17.83A.48.48,0,0,1,327.91,196.46Z" style="fill:#263238"></path><path d="M327.91,197.46a.51.51,0,0,1-.5-.44l-3.47-31.24a.5.5,0,0,1,1-.11l3.47,31.23a.51.51,0,0,1-.44.56Z" style="fill:#263238"></path><path d="M396.29,210.52h0a.5.5,0,0,1-.49-.51l.82-40.62a.52.52,0,0,1,.51-.49.52.52,0,0,1,.49.51L396.79,210A.49.49,0,0,1,396.29,210.52Z" style="fill:#263238"></path><path d="M360.57,160.42c5.72,6.94,10.82,12.66,10.82,12.66s8.71-18.82,11.16-28c-3.6-1.85-6.47-3.27-6.47-3.27l-20.41-3.68-6.45,2.36C351,144.44,356,154.86,360.57,160.42Z" style="fill:#263238"></path><path d="M371.39,173.58a.48.48,0,0,1-.37-.17c-.06-.06-5.18-5.8-10.84-12.67-4.58-5.57-9.51-15.84-11.41-20a.51.51,0,0,1,0-.4.5.5,0,0,1,.29-.28l6.45-2.36a.46.46,0,0,1,.26,0l20.41,3.67.14.05s2.87,1.42,6.47,3.27a.51.51,0,0,1,.25.58c-2.43,9.07-11.1,27.85-11.19,28a.48.48,0,0,1-.38.28ZM349.9,140.81c2,4.39,6.72,14,11.06,19.29,4.61,5.6,8.86,10.45,10.29,12.07,1.57-3.43,8.45-18.68,10.71-26.79-3.11-1.6-5.61-2.84-6-3l-20.21-3.64Z" style="fill:#263238"></path><path d="M326.25,186.5a.49.49,0,0,1-.47-.35l-4.89-16.22a.51.51,0,0,1,.33-.63.49.49,0,0,1,.62.34l4.89,16.22a.5.5,0,0,1-.33.62Z" style="fill:#263238"></path><path d="M396.69,197.17h-.09a.5.5,0,0,1-.4-.58L400,174.36a.52.52,0,0,1,.58-.41.51.51,0,0,1,.41.58l-3.78,22.22A.5.5,0,0,1,396.69,197.17Z" style="fill:#263238"></path><path d="M405.8,198.72a.42.42,0,0,1-.22-.05.5.5,0,0,1-.23-.67l3.35-6.77a.51.51,0,0,1,.67-.23.5.5,0,0,1,.23.67l-3.35,6.77A.5.5,0,0,1,405.8,198.72Z" style="fill:#263238"></path><path d="M313.81,193.17a.49.49,0,0,1-.4-.21l-4.48-6.11a.51.51,0,0,1,.11-.7.5.5,0,0,1,.7.1l4.47,6.12a.5.5,0,0,1-.4.8Z" style="fill:#263238"></path><path d="M278.48,160.73a.51.51,0,0,1-.32-.12c-1.13-1-4.49-3.44-6.34-3.44-2.32,0-7.32,2-7.37,2a.49.49,0,0,1-.47-.06l-2.89-2a.5.5,0,1,1,.57-.82l2.67,1.85c1.08-.41,5.26-1.94,7.49-1.94,2.6,0,6.81,3.52,7,3.67a.52.52,0,0,1,.06.71A.5.5,0,0,1,278.48,160.73Z" style="fill:#263238"></path><path d="M392.81,104.08s2.79,8.75,3,11.54-1.12,4.47-.93,6.33,2.61,5.59,1.86,6.71-5.4,2.05-5.4,2.05S389.27,141,387,141.32s-9.5,0-9.5,0-6.33,20.3-7.26,20.86-16.21-18.62-16.21-21.6,4.29-17.69,4.29-17.69l-4.84-15.28s-3.17-5,3.72-9.31,21.05-2,25.51-1.49S392.81,104.08,392.81,104.08Z" style="fill:#fff"></path><path d="M370.23,162.69a.85.85,0,0,1-.43-.13c-2.25-1.27-16.23-18.82-16.23-22,0-2.89,3.79-16.06,4.27-17.69l-4.78-15.07a6.28,6.28,0,0,1-.61-4.43c.48-2.09,2-3.94,4.53-5.51,6.57-4.09,19.35-2.41,24.8-1.7l1,.14c4.61.57,10.14,7.16,10.38,7.44a.51.51,0,0,1,.09.16c.11.36,2.81,8.85,3,11.67a10.78,10.78,0,0,1-.55,3.92,6.37,6.37,0,0,0-.38,2.39,12.31,12.31,0,0,0,.95,2.8c.76,1.8,1.42,3.36.83,4.24-.74,1.1-4.14,1.92-5.39,2.19-.58,2.8-2.34,10.3-4.63,10.69a71,71,0,0,1-9.22,0c-2.4,7.69-6.43,20.21-7.37,20.77A.52.52,0,0,1,370.23,162.69Zm-.44-66.46c-4.54,0-9.18.57-12.29,2.5-6.35,4-3.68,8.43-3.56,8.62a.37.37,0,0,1,.05.11l4.84,15.27a.51.51,0,0,1,0,.3c0,.14-4.27,14.67-4.27,17.55,0,2.43,13.19,19.34,15.55,21,.92-1.66,4.69-13.21,6.94-20.42a.52.52,0,0,1,.51-.35c.07,0,7.23.37,9.39,0,1.17-.2,2.92-5.46,3.87-10.22a.5.5,0,0,1,.39-.39c1.85-.37,4.65-1.19,5.09-1.84.28-.43-.44-2.15-.92-3.29a12.79,12.79,0,0,1-1-3.09,7.59,7.59,0,0,1,.42-2.77,9.75,9.75,0,0,0,.51-3.57c-.17-2.55-2.62-10.38-2.93-11.34-.61-.72-5.69-6.51-9.67-7l-1-.14A92.85,92.85,0,0,0,369.79,96.23Z" style="fill:#263238"></path><path d="M394.11,116.31a.5.5,0,0,1-.47-.35,2.88,2.88,0,0,0-1.57-1.69c-.87-.28-2,.06-3.24,1a.5.5,0,0,1-.7-.11.48.48,0,0,1,.1-.69c1.56-1.16,3-1.55,4.15-1.16a3.77,3.77,0,0,1,2.21,2.34.49.49,0,0,1-.32.62A.41.41,0,0,1,394.11,116.31Z" style="fill:#263238"></path><path d="M391.85,120.46c0,1.28-.57,2.32-1.27,2.32s-1.28-1-1.28-2.32.57-2.31,1.28-2.31S391.85,119.19,391.85,120.46Z" style="fill:#263238"></path><path d="M388,132.51h-.05a6,6,0,0,1-3.68-1.85.49.49,0,0,1,.05-.7.5.5,0,0,1,.7,0,5,5,0,0,0,3,1.51.51.51,0,0,1,.46.55A.5.5,0,0,1,388,132.51Z" style="fill:#263238"></path><polygon points="377.54 141.32 371.95 139.27 375.68 146.16 377.54 141.32" style="fill:#263238"></polygon><path d="M375.68,146.67a.52.52,0,0,1-.44-.27l-3.73-6.89a.48.48,0,0,1,.07-.56.48.48,0,0,1,.55-.14l5.58,2a.51.51,0,0,1,.29.27.55.55,0,0,1,0,.38l-1.87,4.84a.48.48,0,0,1-.43.32ZM373,140.2,375.6,145l1.29-3.35Z" style="fill:#263238"></path><path d="M368.79,130.09h0a.5.5,0,0,1-.46-.54l.33-4a16.45,16.45,0,0,1-2.78-.53,5.64,5.64,0,0,1-2.3-1.86.5.5,0,1,1,.81-.59,4.67,4.67,0,0,0,1.8,1.5,17.77,17.77,0,0,0,3.06.53.51.51,0,0,1,.45.54l-.37,4.47A.51.51,0,0,1,368.79,130.09Z" style="fill:#263238"></path><path d="M364,115.17a3.55,3.55,0,0,1,5.08,1.3c.2.33.41.59.63.64.74.19,2.23,1.12,3-.37s-.19-4.84.74-5.77,4.29-.93,4.66-2.42-3-5.59-2.05-6.52,12.85,2.79,14.9,3.16,9.68-3.72,10.24-9.87-5-11.92-9.31-10.8A74.75,74.75,0,0,0,378.47,89c-6,2.61-19.37,1.49-24.58,8.75s-1.12,18.07.18,19.74,3.54,8.39,5.78,8a8.14,8.14,0,0,0,4.09-2.6S361,117.37,364,115.17Z" style="fill:#263238"></path><path d="M359.66,126c-1.79,0-3.28-3-4.59-5.68a19.8,19.8,0,0,0-1.39-2.54c-1.31-1.68-5.65-12.74-.2-20.34,3.58-5,10.69-6.12,17-7.12a36.11,36.11,0,0,0,7.83-1.8,72.31,72.31,0,0,1,12.63-4.27l.85-.22a6.72,6.72,0,0,1,5.91,1.79,11.56,11.56,0,0,1,4,9.54c-.35,3.85-3.23,6.57-4.92,7.86-2.17,1.65-4.66,2.69-5.91,2.46-.6-.11-2-.49-3.7-1-3.22-.88-9.92-2.71-10.8-2.31-.16.26.67,1.87,1.06,2.65.71,1.39,1.39,2.71,1.16,3.6-.29,1.16-1.73,1.57-3,1.94a4.84,4.84,0,0,0-1.77.71c-.34.34-.32,1.48-.3,2.49a7.26,7.26,0,0,1-.35,3.15c-.81,1.62-2.38,1.05-3.14.78a3.34,3.34,0,0,0-.41-.14,1.68,1.68,0,0,1-.94-.88,3.37,3.37,0,0,0-2.19-1.59,2.64,2.64,0,0,0-2.17.45h0c-2.6,1.91.06,7,.09,7.07a.52.52,0,0,1-.06.56,8.64,8.64,0,0,1-4.4,2.78ZM393,84.88a3.51,3.51,0,0,0-1,.13l-.86.22a70.62,70.62,0,0,0-12.48,4.22,36.11,36.11,0,0,1-8.07,1.86c-6.08,1-13,2.08-16.31,6.73-5.11,7.12-.89,17.76.18,19.14a18.58,18.58,0,0,1,1.49,2.7c1,2,2.63,5.3,3.81,5.12a7.27,7.27,0,0,0,3.58-2.2c-.61-1.26-2.54-5.91.36-8a3.69,3.69,0,0,1,3-.62,4.32,4.32,0,0,1,2.85,2.06c.21.36.33.42.33.42a5,5,0,0,1,.51.17c1,.38,1.54.42,1.89-.28a6.59,6.59,0,0,0,.25-2.69c0-1.33-.05-2.58.59-3.22a5.34,5.34,0,0,1,2.21-1c1-.29,2.16-.62,2.31-1.22s-.54-1.84-1.08-2.9c-.85-1.66-1.58-3.1-.83-3.85s3.2-.23,11.72,2.1c1.64.44,3.06.83,3.62.93s2.8-.51,5.12-2.27c1.56-1.18,4.22-3.69,4.53-7.15A10.53,10.53,0,0,0,397,86.59,6.43,6.43,0,0,0,393,84.88Zm-29,30.29h0Z" style="fill:#263238"></path></g></svg>