<?xml version="1.0" standalone="no"?>
<!DOCTYPE svg PUBLIC "-//W3C//DTD SVG 20010904//EN"
 "http://www.w3.org/TR/2001/REC-SVG-20010904/DTD/svg10.dtd">
<svg version="1.0" xmlns="http://www.w3.org/2000/svg"
 width="3767.000000pt" height="3767.000000pt" viewBox="0 0 3767.000000 3767.000000"
 preserveAspectRatio="xMidYMid meet">

<g transform="translate(0.000000,3767.000000) scale(0.100000,-0.100000)"
fill="#000000" stroke="none">
<path d="M18344 37659 c-3526 -91 -6908 -1150 -9849 -3084 -1623 -1067 -3092
-2400 -4316 -3915 -2004 -2483 -3339 -5414 -3888 -8535 -382 -2171 -382 -4409
0 -6580 750 -4265 2972 -8159 6274 -10994 1707 -1466 3619 -2595 5715 -3374
3282 -1221 6883 -1496 10345 -791 4262 869 8116 3218 10866 6624 3238 4011
4677 9119 4018 14260 -635 4955 -3246 9472 -7244 12532 -2623 2007 -5733 3289
-8995 3707 -675 87 -1265 132 -1990 151 -406 11 -508 11 -936 -1z m1171 -929
c132 -5 317 -14 410 -20 3843 -232 7469 -1680 10428 -4163 648 -544 1302
-1181 1880 -1831 413 -465 807 -959 1180 -1480 1899 -2655 3030 -5768 3277
-9021 40 -528 45 -689 45 -1380 0 -691 -5 -852 -45 -1380 -272 -3578 -1606
-6966 -3854 -9785 -630 -790 -1350 -1549 -2120 -2233 -465 -413 -959 -807
-1480 -1180 -2734 -1956 -5948 -3094 -9311 -3297 -676 -41 -1504 -41 -2180 0
-3843 232 -7469 1680 -10428 4163 -648 544 -1302 1181 -1880 1831 -1245 1401
-2294 3042 -3032 4747 -796 1838 -1274 3767 -1425 5754 -40 528 -45 689 -45
1380 0 691 5 852 45 1380 284 3731 1723 7255 4143 10138 544 648 1181 1302
1831 1880 1364 1213 2952 2236 4611 2972 2077 921 4264 1430 6555 1524 278 12
1122 12 1395 1z"/>
<path d="M17524 34363 c-765 -461 -1389 -840 -1387 -843 3 -3 227 -26 499 -51
272 -26 498 -49 501 -53 3 -3 -30 -156 -75 -339 -150 -611 -176 -762 -176
-1012 1 -143 4 -183 23 -250 11 -43 25 -83 29 -87 4 -4 136 -11 293 -14 l284
-7 12 24 c31 70 38 147 38 439 0 162 -6 358 -13 435 -20 217 -61 558 -83 684
-10 63 -18 116 -16 118 2 2 517 11 1144 21 l1140 19 1338 846 1338 847 -103 0
c-133 0 -2863 47 -3165 55 l-230 5 -1391 -837z"/>
<path d="M20669 33720 l-807 -530 -1026 0 -1026 0 6 -47 c30 -266 66 -438 131
-633 261 -787 883 -1285 1723 -1381 154 -17 483 -7 639 21 492 86 905 297
1212 617 412 431 542 976 380 1599 -42 158 -91 285 -186 479 -75 152 -221 405
-235 405 -3 0 -368 -239 -811 -530z"/>
<path d="M22773 33378 c22 -290 16 -524 -18 -754 -106 -704 -499 -1396 -1040
-1830 -467 -374 -931 -575 -1477 -640 -175 -20 -499 -20 -688 1 -537 60 -1088
235 -1737 550 -344 167 -606 314 -1075 601 -374 230 -648 379 -958 524 -1322
617 -2790 939 -4600 1009 -416 16 -927 24 -1071 15 l-134 -8 174 -17 c1319
-135 2695 -630 4121 -1485 409 -245 455 -277 641 -449 1633 -1508 2534 -2918
2887 -4517 l36 -168 2149 0 2148 0 60 128 c431 910 662 1603 773 2328 88 571
141 1054 178 1619 16 253 16 1091 0 1305 -45 588 -115 1023 -236 1461 -43 157
-125 409 -133 409 -3 0 -3 -37 0 -82z"/>
<path d="M23745 31230 c18 -414 11 -841 -20 -1226 -118 -1457 -552 -2707
-1286 -3701 l-69 -93 1635 0 1634 0 118 97 c764 625 1226 1217 1452 1857 17
49 30 90 28 92 -2 2 -39 -22 -83 -53 -217 -155 -534 -338 -744 -431 -826 -365
-1388 -195 -1751 530 -178 354 -275 698 -469 1653 -50 248 -109 524 -131 615
-80 326 -183 592 -278 720 l-41 54 5 -114z"/>
<path d="M12047 30672 l-1129 -647 -417 -1025 c-229 -564 -425 -1044 -434
-1067 l-16 -41 82 38 c45 21 203 95 351 164 148 70 270 125 271 124 1 -2 58
-109 125 -238 219 -419 321 -586 453 -741 70 -82 189 -182 210 -177 7 2 93 48
190 103 205 114 197 101 123 214 -118 182 -515 601 -845 892 l-63 56 718 448
c396 247 721 449 722 451 2 1 176 461 387 1021 211 560 388 1030 394 1046 6
15 9 27 8 27 -1 0 -510 -291 -1130 -648z"/>
<path d="M14230 30464 c0 -3 26 -34 58 -68 152 -163 348 -434 467 -646 124
-221 221 -477 272 -715 25 -121 27 -146 27 -375 1 -217 -2 -257 -22 -346 -118
-539 -467 -965 -1015 -1240 -283 -142 -556 -229 -908 -289 -270 -45 -448 -55
-1019 -54 -644 1 -984 -17 -1460 -77 -606 -76 -1102 -186 -1655 -367 l-220
-72 140 -3 140 -3 -3 -39 -4 -40 528 2 527 3 12 35 12 35 3791 3 c2632 1 3792
5 3792 12 0 19 -127 360 -195 525 -77 187 -293 626 -395 804 -619 1076 -1507
2001 -2687 2799 -101 68 -183 120 -183 116z"/>
<path d="M12836 29753 l-228 -648 -649 -389 -650 -389 63 -65 c240 -244 611
-482 914 -586 468 -160 949 -134 1367 75 204 102 409 271 543 449 291 386 323
886 82 1295 -177 301 -479 560 -897 770 -125 62 -291 135 -308 135 -5 0 -111
-291 -237 -647z"/>
<path d="M25745 30235 c-379 -13 -742 -24 -805 -24 l-115 -1 192 -127 c105
-70 190 -131 187 -134 -2 -4 -82 -69 -177 -145 -201 -161 -361 -317 -406 -394
-17 -30 -31 -58 -31 -61 0 -8 215 -129 228 -129 43 0 297 324 456 583 27 42
53 77 59 77 5 0 218 -105 472 -234 l461 -235 790 40 c434 21 793 40 798 42 15
5 -1366 762 -1393 763 -15 1 -336 -9 -716 -21z"/>
<path d="M25368 29661 c-140 -218 -196 -396 -185 -586 6 -111 30 -198 79 -284
121 -212 378 -374 677 -426 107 -19 315 -19 423 0 353 61 634 279 769 594 36
86 75 231 85 320 l7 61 -44 0 c-24 0 -247 -13 -496 -30 l-452 -29 -343 180
c-189 99 -375 198 -414 218 l-70 38 -36 -56z"/>
<path d="M17614 24320 c-595 -39 -1080 -249 -1444 -626 -149 -155 -252 -302
-341 -488 -39 -82 -42 -90 -28 -112 8 -13 44 -67 80 -121 215 -320 352 -667
421 -1068 20 -114 22 -165 23 -425 0 -239 -3 -316 -18 -405 -86 -516 -270
-931 -586 -1322 l-91 -113 0 -460 0 -460 740 0 740 0 0 1788 c0 1105 4 1823
10 1881 13 121 34 200 75 286 79 164 218 275 400 320 104 26 278 24 380 -4
327 -90 509 -381 440 -706 -36 -169 -147 -306 -316 -389 -155 -76 -319 -106
-591 -106 l-118 0 0 -656 0 -657 208 7 c437 15 738 65 1044 172 479 169 894
504 1098 887 l42 78 -104 107 c-306 320 -453 678 -434 1052 15 285 85 523 213
728 l54 86 -93 94 c-344 347 -764 553 -1258 616 -153 19 -385 26 -546 16z"/>
<path d="M12815 24314 c-332 -27 -643 -93 -935 -200 -156 -58 -464 -215 -610
-312 -574 -382 -991 -922 -1184 -1533 -41 -128 -90 -353 -108 -489 -15 -124
-15 -488 1 -615 77 -612 360 -1175 824 -1635 493 -491 1116 -791 1842 -886
181 -24 609 -24 789 0 596 78 1113 286 1547 622 620 479 984 1094 1095 1849
27 182 25 562 -4 750 -47 301 -119 530 -252 800 -135 275 -285 487 -500 709
-506 521 -1157 837 -1915 926 -94 11 -503 21 -590 14z m524 -1375 c214 -36
433 -128 614 -256 105 -75 278 -245 354 -350 77 -104 162 -271 202 -396 51
-159 65 -260 65 -457 0 -198 -21 -333 -75 -488 -167 -473 -603 -855 -1099
-962 -203 -44 -455 -50 -653 -15 -319 57 -588 198 -825 434 -239 237 -377 509
-423 830 -17 120 -6 411 19 521 60 257 177 476 355 666 380 403 894 569 1466
473z"/>
<path d="M21465 24223 c-184 -4 -487 -23 -616 -39 -331 -40 -559 -118 -780
-266 -113 -75 -282 -241 -357 -350 -70 -102 -154 -280 -187 -393 -47 -165 -59
-256 -59 -455 0 -161 3 -198 23 -280 96 -387 365 -744 741 -982 30 -19 325
-185 655 -368 656 -363 767 -432 866 -530 171 -172 173 -376 4 -476 -92 -54
-91 -54 -1247 -54 l-1068 0 0 -655 0 -655 1068 0 c1224 0 1444 9 1727 70 389
85 746 296 949 562 l26 35 -59 99 c-131 219 -211 490 -241 814 -5 63 -10 343
-10 621 l0 507 -87 65 c-155 115 -247 168 -883 516 -343 188 -660 368 -704
399 -93 68 -167 146 -204 216 -21 41 -26 65 -27 121 0 85 22 123 93 159 113
57 265 66 1130 66 l682 0 0 624 0 623 -46 7 c-43 5 -1103 5 -1389 -1z"/>
<path d="M23153 22263 c3 -2107 1 -2000 53 -2258 42 -208 144 -453 253 -605
283 -396 747 -611 1446 -670 66 -5 432 -10 813 -10 l692 0 0 640 0 639 -667 3
c-598 3 -674 5 -726 21 -197 58 -308 168 -364 362 -16 56 -18 183 -21 1948
l-3 1887 -740 0 -740 0 4 -1957z"/>
<path d="M9678 15443 c-293 -365 -2909 -3685 -2906 -3689 3 -2 5264 -3 11691
-2 l11686 3 -1482 1878 -1481 1877 -8727 0 -8727 0 -54 -67z m17677 -1255
c347 -479 632 -875 633 -880 2 -4 -4272 -8 -9498 -8 -5392 0 -9500 4 -9498 9
2 5 284 400 628 880 l625 871 8240 0 8240 -1 630 -871z m-6864 -1277 c9 -8
269 -584 266 -587 -4 -4 -4548 -26 -4552 -22 -1 2 65 144 148 316 l151 312
1990 -6 c1095 -4 1994 -9 1997 -13z"/>
<path d="M4355 15179 c-227 -27 -483 -122 -669 -248 -513 -349 -722 -983 -505
-1538 167 -427 547 -732 1049 -840 120 -25 437 -25 565 0 201 41 417 130 585
242 98 65 284 250 348 347 102 152 171 314 208 488 24 115 24 353 0 465 -120
554 -539 952 -1122 1065 -126 24 -340 33 -459 19z m435 -678 c225 -72 379
-218 454 -430 27 -76 31 -99 31 -196 0 -95 -4 -121 -28 -192 -80 -233 -266
-399 -534 -475 -112 -32 -306 -32 -416 0 -330 95 -530 352 -514 662 16 317
264 581 617 656 108 23 275 12 390 -25z"/>
<path d="M32727 14822 c-65 -180 -125 -355 -134 -387 -20 -84 -21 -256 0 -323
38 -125 131 -234 242 -287 172 -81 341 -84 503 -9 115 52 184 108 364 293 161
164 169 171 207 171 31 0 44 -6 60 -26 12 -15 21 -33 21 -41 0 -8 -56 -170
-125 -360 -69 -190 -122 -350 -118 -354 4 -4 121 -42 259 -86 l251 -79 131
362 c73 200 143 407 157 461 59 227 21 401 -119 538 -132 129 -349 187 -526
140 -148 -39 -258 -119 -490 -356 -150 -153 -180 -179 -206 -179 -16 0 -39 7
-51 15 -45 31 -40 54 77 374 61 167 108 306 106 308 -6 6 -469 153 -481 153
-5 0 -63 -148 -128 -328z"/>
<path d="M32289 13653 c-105 -231 -113 -383 -29 -547 22 -42 37 -76 35 -76 -2
0 -61 25 -131 55 -70 30 -129 54 -130 52 -6 -6 -233 -471 -231 -473 3 -4 1768
-764 1773 -764 2 0 60 113 129 250 122 245 125 251 103 259 -63 24 -690 297
-733 319 -129 65 -231 156 -282 253 -26 51 -28 61 -27 169 0 118 12 163 77
311 l16 36 -262 112 c-144 61 -266 111 -270 111 -4 0 -22 -30 -38 -67z"/>
<path d="M5225 12284 c-38 -8 -118 -34 -176 -58 -90 -36 -1709 -873 -1732
-895 -8 -8 272 -490 286 -491 4 0 369 189 810 419 442 231 834 430 872 442
199 64 366 -5 457 -188 90 -184 -7 -373 -242 -467 -148 -59 -303 -30 -409 75
-57 58 -85 109 -114 206 -13 46 -26 85 -29 89 -9 9 -543 -273 -546 -289 -5
-22 64 -172 114 -250 183 -283 447 -432 789 -444 150 -6 254 9 393 59 373 131
619 391 689 726 19 93 13 275 -12 367 -23 86 -105 249 -163 325 -133 176 -324
304 -539 361 -105 29 -346 36 -448 13z"/>
<path d="M31815 12089 c-340 -45 -620 -237 -764 -524 -165 -330 -99 -728 166
-1006 226 -236 579 -362 895 -320 374 50 648 244 799 566 66 141 82 217 82
390 0 130 -3 163 -26 248 -30 111 -104 274 -166 366 l-42 62 -32 -19 c-18 -11
-86 -50 -152 -87 -66 -37 -150 -85 -186 -106 l-67 -39 38 -77 c96 -196 98
-390 6 -548 -31 -51 -111 -127 -164 -154 -191 -98 -453 -44 -613 125 -90 95
-124 188 -117 315 5 91 36 162 97 226 44 45 128 99 138 89 4 -4 12 -133 19
-289 6 -155 12 -283 13 -284 0 -2 96 -3 211 -3 l210 0 0 83 c-1 187 -29 979
-35 985 -10 11 -233 11 -310 1z"/>
<path d="M6533 10546 c-228 -44 -440 -158 -590 -319 -78 -84 -114 -137 -163
-239 -142 -298 -111 -643 82 -903 212 -285 532 -436 922 -435 111 1 337 27
351 42 1 1 -20 107 -47 233 l-51 230 -156 0 c-145 0 -162 2 -243 29 -212 69
-348 229 -348 407 0 294 333 532 635 454 155 -41 274 -163 300 -308 6 -37 5
-38 -17 -31 -189 61 -575 171 -580 166 -8 -9 -140 -364 -136 -367 9 -9 1074
-335 1083 -331 14 5 78 163 101 251 15 55 19 105 19 230 0 140 -3 169 -23 235
-98 312 -355 550 -687 636 -124 32 -338 42 -452 20z"/>
<path d="M30340 10344 c-170 -36 -319 -114 -442 -232 -185 -176 -268 -356
-268 -577 0 -176 54 -330 168 -481 89 -117 146 -167 597 -519 341 -266 409
-315 420 -304 7 8 95 106 195 218 182 205 182 205 161 222 -12 10 -211 165
-442 345 -421 327 -460 363 -487 443 -30 88 1 195 76 263 68 62 97 73 192 73
73 0 93 -4 140 -27 30 -16 248 -179 484 -363 342 -267 432 -333 442 -323 119
128 373 422 369 428 -8 13 -792 621 -870 675 -97 67 -235 131 -335 155 -102
24 -298 26 -400 4z"/>
<path d="M29052 9174 c-159 -161 -208 -268 -200 -436 l4 -89 -100 99 -101 100
-206 -177 -206 -177 656 -671 c361 -368 660 -671 664 -673 9 -2 437 358 437
367 0 3 -123 130 -274 283 -283 288 -343 359 -398 476 -30 62 -33 78 -33 160
0 84 2 95 38 168 29 58 62 101 134 177 l95 99 -193 198 c-106 108 -197 199
-202 201 -4 2 -57 -46 -115 -105z"/>
<path d="M8215 9059 c-188 -24 -361 -105 -532 -248 -52 -43 -753 -817 -761
-840 -3 -10 438 -354 456 -355 8 -1 179 183 381 408 410 458 418 465 540 474
100 7 161 -16 231 -87 60 -61 80 -106 80 -184 0 -86 -40 -140 -420 -564 -195
-218 -356 -399 -358 -403 -3 -7 452 -363 463 -361 6 0 551 607 672 748 169
197 232 337 240 538 6 137 -14 244 -66 358 -82 183 -249 346 -453 442 -139 66
-321 94 -473 74z"/>
<path d="M11129 7950 c-257 -40 -490 -238 -575 -486 -24 -68 -28 -95 -27 -194
0 -200 18 -247 245 -628 93 -155 182 -310 198 -344 53 -112 49 -192 -11 -243
-40 -33 -74 -41 -125 -27 -23 6 -234 113 -468 238 -247 131 -431 223 -436 218
-8 -8 -289 -466 -311 -506 -7 -14 48 -46 369 -217 447 -237 596 -310 717 -350
205 -68 432 -58 600 26 181 91 320 250 382 438 23 69 26 97 26 200 0 100 -5
135 -27 208 -35 118 -60 165 -263 500 -114 186 -182 309 -195 350 -30 96 -9
165 57 187 53 18 127 -14 507 -216 190 -101 350 -184 355 -184 10 0 317 499
311 505 -2 2 -161 87 -353 189 -373 198 -556 283 -679 315 -91 24 -220 33
-297 21z"/>
<path d="M27599 7930 c-350 -41 -698 -294 -814 -590 -64 -162 -78 -368 -36
-525 57 -212 229 -457 416 -591 118 -84 289 -152 444 -175 110 -15 282 -6 386
21 156 41 340 145 479 272 l49 44 -184 241 -184 241 -80 -82 c-123 -127 -244
-176 -379 -155 -124 20 -245 117 -307 246 -29 59 -33 78 -33 148 -1 68 3 88
26 130 35 67 104 129 186 168 60 29 77 32 157 32 83 0 95 -3 153 -34 34 -19
84 -56 111 -82 27 -27 177 -215 332 -419 156 -203 287 -370 291 -370 11 0 488
319 488 326 0 8 -470 622 -566 739 -138 169 -229 247 -369 317 -173 88 -368
121 -566 98z"/>
<path d="M25545 6796 c-256 -50 -499 -203 -634 -400 -49 -71 -98 -176 -127
-272 -25 -80 -27 -104 -27 -239 0 -135 2 -159 27 -239 82 -270 259 -484 501
-604 394 -197 822 -147 1166 134 148 121 273 321 325 519 22 82 27 130 31 269
l6 168 -59 -6 c-33 -3 -150 -8 -261 -12 l-203 -7 0 -47 c0 -137 -65 -316 -150
-412 -88 -101 -231 -168 -354 -168 -207 0 -404 153 -468 363 -76 250 97 505
355 524 42 3 77 4 77 1 0 -2 -63 -120 -140 -263 -77 -142 -140 -260 -140 -262
0 -5 358 -183 369 -183 4 0 126 212 271 472 245 442 261 473 243 486 -52 39
-268 135 -358 158 -124 32 -339 42 -450 20z"/>
<path d="M22887 6590 c-170 -54 -310 -100 -312 -102 -7 -7 624 -1720 659
-1788 55 -108 114 -187 199 -267 193 -180 468 -226 817 -138 96 24 629 190
637 199 4 3 -192 555 -200 562 -1 2 -122 -36 -267 -82 -319 -103 -386 -113
-473 -70 -35 17 -64 41 -85 70 -23 32 -117 279 -335 878 -199 546 -308 834
-318 835 -8 1 -153 -43 -322 -97z"/>
<path d="M12773 6335 c-366 -66 -675 -328 -783 -663 -64 -199 -63 -379 4 -575
45 -131 114 -243 211 -342 126 -129 257 -207 440 -261 127 -38 346 -45 485
-16 396 82 702 381 781 765 92 449 -160 883 -610 1047 -157 57 -364 75 -528
45z m329 -582 c104 -47 189 -163 203 -278 19 -147 -78 -325 -213 -394 -113
-58 -224 -61 -330 -11 -72 34 -123 85 -159 159 -25 49 -28 68 -28 151 0 86 3
102 31 160 51 109 129 181 237 221 69 26 192 22 259 -8z"/>
<path d="M14435 5797 c-15 -47 -237 -986 -245 -1037 -14 -93 -12 -244 5 -325
30 -142 118 -289 243 -406 164 -154 361 -233 617 -246 419 -22 763 237 894
672 27 90 242 977 238 981 -10 10 -581 124 -587 117 -4 -4 -62 -234 -129 -510
-67 -276 -128 -518 -137 -538 -21 -52 -87 -120 -142 -146 -60 -29 -156 -31
-231 -5 -104 36 -181 143 -181 254 0 18 56 266 125 550 69 284 122 519 118
523 -5 3 -100 25 -213 49 -113 23 -242 50 -288 60 -61 14 -84 15 -87 7z"/>
<path d="M20547 5405 c-398 -75 -704 -363 -782 -736 -20 -93 -19 -279 1 -377
65 -315 305 -586 621 -701 124 -46 223 -62 363 -62 286 2 543 102 740 288 102
97 154 161 215 269 45 79 101 210 111 263 l6 27 -242 73 c-133 40 -243 71
-244 69 -1 -2 -11 -23 -22 -48 -31 -74 -107 -182 -165 -236 -280 -262 -683
-185 -799 152 -63 181 -20 356 116 484 78 72 147 101 260 108 83 4 199 -18
192 -38 -2 -5 -95 -88 -208 -185 -113 -98 -214 -185 -224 -195 -19 -18 -16
-22 119 -165 76 -80 142 -144 147 -143 5 2 198 163 428 358 l418 354 -31 41
c-56 71 -182 189 -256 238 -95 65 -218 121 -321 148 -110 28 -328 35 -443 14z"/>
<path d="M16640 5391 c0 -6 -58 -399 -129 -873 -71 -475 -131 -878 -133 -897
l-3 -35 289 -38 c160 -20 291 -36 293 -35 1 2 28 172 59 377 62 415 87 514
154 617 60 91 132 142 248 177 72 21 210 29 305 19 74 -9 78 -8 82 11 13 58
77 517 73 521 -11 12 -212 26 -283 21 -155 -11 -259 -51 -368 -141 -37 -30
-67 -54 -67 -52 0 2 9 62 20 133 11 70 18 129 17 130 -1 1 -112 16 -247 33
-135 18 -260 34 -277 37 -21 4 -33 2 -33 -5z"/>
<path d="M19001 5229 c-269 -31 -510 -138 -672 -299 -123 -121 -199 -259 -230
-420 -20 -104 -15 -310 10 -405 42 -156 117 -282 235 -392 80 -76 130 -110
232 -161 198 -100 408 -141 722 -142 l152 0 0 274 0 273 -187 6 c-123 4 -209
11 -248 22 -145 38 -245 116 -285 221 -32 85 -26 198 15 273 51 93 147 160
275 192 37 10 117 14 246 14 l192 0 6 65 c3 36 6 161 6 278 l0 212 -197 -1
c-109 -1 -231 -5 -272 -10z"/>
</g>
</svg>
